<svg width="50" height="50" viewBox="0 0 50 50" fill="none" xmlns="http://www.w3.org/2000/svg">
<path d="M25 50C38.8071 50 50 38.8071 50 25C50 11.1929 38.8071 0 25 0C11.1929 0 0 11.1929 0 25C0 38.8071 11.1929 50 25 50Z" fill="#FFFEFE"/>
<g clip-path="url(#clip0_127_4232)">
<path fill-rule="evenodd" clip-rule="evenodd" d="M23.8132 22.3086C23.8037 22.3184 23.6777 22.329 23.5332 22.3321C23.3887 22.3352 23.2705 22.3482 23.2705 22.3609C23.2705 22.3737 23.1445 22.3933 22.9905 22.4047C22.8365 22.416 22.6745 22.4341 22.6305 22.4449C22.5865 22.4558 22.4569 22.4771 22.3425 22.4923C22.2281 22.5074 22.0841 22.5339 22.0225 22.5511C21.9609 22.5682 21.8241 22.5983 21.7185 22.6179C21.6129 22.6376 21.4473 22.6692 21.3505 22.6883C21.2537 22.7074 21.1565 22.7238 21.1345 22.7248C21.1125 22.7258 21.0945 22.737 21.0945 22.7497C21.0945 22.7625 21.0153 22.7828 20.9185 22.795C20.8217 22.8072 20.7425 22.8306 20.7425 22.847C20.7425 22.8635 20.7068 22.8769 20.6631 22.8769C20.6195 22.8769 20.5295 22.8963 20.4631 22.9201C20.2642 22.9913 20.029 23.0629 19.9189 23.0858C19.8619 23.0977 19.807 23.1208 19.797 23.1371C19.7869 23.1535 19.7467 23.1668 19.7077 23.1668C19.6687 23.1668 19.6066 23.1881 19.5697 23.2141C19.5328 23.2401 19.4432 23.271 19.3706 23.2826C19.2979 23.2943 19.2385 23.3135 19.2385 23.3252C19.2385 23.3368 19.1377 23.3815 19.0145 23.4245C18.8913 23.4675 18.7905 23.5141 18.7905 23.528C18.7905 23.542 18.7649 23.5534 18.7336 23.5534C18.7023 23.5534 18.6483 23.5732 18.6136 23.5974C18.5789 23.6215 18.5145 23.6525 18.4705 23.6662C18.3476 23.7043 17.3999 24.1753 17.3879 24.2043C17.3819 24.2183 17.3518 24.2299 17.3207 24.2299C17.2897 24.2299 17.2311 24.2589 17.1905 24.2943C17.1499 24.3297 17.0973 24.3587 17.0736 24.3587C17.0499 24.3587 17.0303 24.3696 17.03 24.3829C17.0297 24.3962 16.9577 24.4425 16.87 24.4859C16.7823 24.5292 16.7105 24.5754 16.7105 24.5884C16.7105 24.6014 16.6781 24.6222 16.6385 24.6347C16.5989 24.6471 16.5593 24.6663 16.5505 24.6771C16.5417 24.688 16.479 24.7255 16.4111 24.7603C16.3432 24.795 16.2748 24.8576 16.2591 24.8993C16.225 24.9895 16.2267 37.6316 16.2609 38.0815C16.2841 38.3873 16.2842 38.3872 16.2893 37.9124C16.2922 37.6511 16.3069 37.4373 16.3221 37.4373C16.3373 37.4373 16.36 37.2964 16.3726 37.1242C16.3851 36.952 16.4047 36.7962 16.416 36.7779C16.4274 36.7597 16.4411 36.7157 16.4465 36.6803C16.4946 36.3655 16.5667 36.0516 16.6167 35.9394C16.6324 35.9039 16.6587 35.817 16.6751 35.7461C16.72 35.5514 16.8363 35.2359 16.9203 35.0807C16.9457 35.0337 16.9665 34.9768 16.9665 34.9544C16.9665 34.9054 17.2519 34.3034 17.286 34.2804C17.2991 34.2715 17.3209 34.2287 17.3344 34.1853C17.3479 34.1418 17.3751 34.0879 17.3947 34.0656C17.4904 33.9568 17.5105 33.9254 17.5105 33.884C17.5105 33.8594 17.5393 33.8058 17.5745 33.765C17.6097 33.7241 17.6385 33.6774 17.6385 33.6611C17.6385 33.6448 17.6565 33.6113 17.6785 33.5866C17.7689 33.4851 17.7917 33.4507 17.8127 33.384C17.8249 33.3455 17.8458 33.314 17.8593 33.314C17.8727 33.314 17.9283 33.2448 17.9827 33.1603C18.0371 33.0758 18.1151 32.9684 18.156 32.9217C18.197 32.8751 18.2953 32.7602 18.3745 32.6665C18.6462 32.3451 19.0562 31.9288 19.1012 31.9288C19.126 31.9288 19.1387 31.9165 19.1295 31.9014C19.1203 31.8864 19.1482 31.855 19.1916 31.8316C19.235 31.8082 19.2705 31.7784 19.2705 31.7653C19.2705 31.7419 19.5775 31.4887 19.8304 31.3036C19.9009 31.252 19.9657 31.2013 19.9745 31.1908C20.0012 31.1591 20.1151 31.0906 20.1745 31.0705C20.2053 31.06 20.2305 31.0383 20.2305 31.0221C20.2305 31.0059 20.2557 30.9833 20.2865 30.9718C20.3173 30.9604 20.3949 30.9182 20.459 30.878C20.5231 30.8378 20.5843 30.8138 20.595 30.8246C20.6057 30.8355 20.6145 30.8294 20.6145 30.8112C20.6145 30.7929 20.6865 30.7436 20.7745 30.7016C20.8625 30.6595 20.9345 30.6157 20.9345 30.6042C20.9345 30.5862 21.0557 30.5421 21.0909 30.5473C21.0978 30.5483 21.1122 30.5368 21.1229 30.5217C21.1518 30.4813 21.5274 30.3054 21.7665 30.2202C21.8809 30.1796 21.9889 30.1354 22.0065 30.1223C22.0241 30.1092 22.0927 30.0882 22.1588 30.0758C22.2251 30.0634 22.2866 30.0411 22.2956 30.0265C22.3046 30.0117 22.3764 29.99 22.4552 29.9781C22.534 29.9662 22.5985 29.945 22.5985 29.9311C22.5985 29.9171 22.6849 29.8956 22.7906 29.8833C22.8962 29.871 22.9899 29.8489 22.9989 29.8343C23.0079 29.8197 23.1088 29.7977 23.2233 29.7854C23.3378 29.773 23.4384 29.7515 23.447 29.7375C23.461 29.7147 24.0516 29.6526 24.1105 29.6678C24.1237 29.6712 24.1345 29.6586 24.1345 29.6398C24.1345 29.5861 25.8687 29.6233 26.2625 29.6854C26.8268 29.7745 27.0301 29.8138 27.0465 29.8368C27.0553 29.8492 27.1381 29.8698 27.2305 29.8824C27.3228 29.895 27.4055 29.9169 27.4141 29.9309C27.4227 29.9449 27.4943 29.9661 27.5734 29.9781C27.6523 29.99 27.7244 30.0117 27.7334 30.0265C27.7424 30.0411 27.8021 30.063 27.8661 30.0751C27.93 30.0872 28.0058 30.1098 28.0344 30.1254C28.0631 30.1409 28.1873 30.1924 28.3105 30.2398C28.4337 30.2872 28.5992 30.3604 28.6783 30.4026C28.7573 30.4448 28.8401 30.4792 28.8623 30.4792C28.8844 30.4792 28.9025 30.4921 28.9025 30.508C28.9025 30.5238 28.9371 30.5454 28.9794 30.5561C29.0859 30.583 29.7201 30.9474 29.7985 31.0268C29.8073 31.0356 29.8385 31.0575 29.8679 31.0752C29.9695 31.1365 30.2628 31.3428 30.3327 31.4021C30.3714 31.4349 30.45 31.498 30.5075 31.5423C30.7685 31.7432 31.4651 32.4259 31.7263 32.7366C31.9382 32.9887 32.4039 33.6379 32.4648 33.7662C32.4771 33.7921 32.5156 33.8568 32.5503 33.9099C32.5851 33.9631 32.6273 34.0378 32.644 34.0759C32.6608 34.1141 32.6887 34.1541 32.7061 34.1649C32.7234 34.1757 32.7471 34.2278 32.7586 34.2808C32.7701 34.3337 32.7917 34.377 32.8065 34.377C32.8213 34.377 32.8429 34.4205 32.8545 34.4737C32.8661 34.5268 32.8888 34.5703 32.9051 34.5703C32.9212 34.5703 32.9345 34.5856 32.9345 34.6043C32.9345 34.6351 32.9817 34.7509 33.1128 35.0422C33.1379 35.0981 33.1585 35.167 33.1585 35.1952C33.1585 35.2236 33.1716 35.2468 33.1877 35.2468C33.2038 35.2468 33.2266 35.3047 33.2385 35.3755C33.2503 35.4463 33.2716 35.5113 33.2856 35.52C33.2997 35.5288 33.3214 35.5905 33.3337 35.6572C33.3461 35.7238 33.3675 35.7928 33.3812 35.8105C33.3949 35.8282 33.4177 35.9007 33.4319 35.9716C33.4596 36.111 33.4593 36.1096 33.4863 36.181C33.5239 36.2798 33.6342 36.8582 33.6445 37.0105C33.6484 37.068 33.661 37.1151 33.6725 37.1151C33.6937 37.1151 33.7475 37.7267 33.7483 37.9768C33.7486 38.0521 33.76 38.1138 33.7736 38.1138C33.7873 38.1138 33.7985 35.1572 33.7985 31.5438C33.7985 24.9393 33.7965 24.8097 33.6932 24.8097C33.6762 24.8097 33.5813 24.7546 33.4824 24.6873C33.3835 24.62 33.2377 24.5314 33.1585 24.4905C33.0793 24.4496 33.0073 24.4068 32.9985 24.3954C32.9447 24.326 31.3761 23.5534 31.289 23.5534C31.2612 23.5534 31.2385 23.5389 31.2385 23.5212C31.2385 23.5035 31.2133 23.4885 31.1825 23.4878C31.1517 23.4873 31.0689 23.4588 30.9985 23.4245C30.9281 23.3903 30.8453 23.3618 30.8145 23.3612C30.7837 23.3606 30.7585 23.3472 30.7585 23.3315C30.7585 23.3157 30.7045 23.2927 30.6385 23.2803C30.5725 23.2679 30.5041 23.2467 30.4865 23.2333C30.4689 23.2198 30.3465 23.1755 30.2145 23.1349C30.0825 23.0944 29.9291 23.0414 29.8737 23.0174C29.8182 22.9933 29.7354 22.9736 29.6897 22.9736C29.6439 22.9736 29.6065 22.9599 29.6065 22.9434C29.6065 22.9267 29.5381 22.9031 29.4545 22.8909C29.3709 22.8788 29.2881 22.8574 29.2705 22.8435C29.2529 22.8296 29.1665 22.8028 29.0785 22.7841C28.9905 22.7654 28.8393 22.7332 28.7425 22.7128C28.6457 22.6923 28.5449 22.6679 28.5185 22.6587C28.4921 22.6493 28.4417 22.6363 28.4065 22.6295C28.3713 22.6228 28.2633 22.6023 28.1665 22.5838C28.0697 22.5653 27.8897 22.5352 27.7665 22.5168C27.6433 22.4983 27.5209 22.4754 27.4945 22.4658C27.4061 22.4337 27.352 22.4262 27.0555 22.4051C26.8933 22.3936 26.7666 22.3745 26.7739 22.3625C26.797 22.3249 23.8493 22.2711 23.8132 22.3086Z" fill="#F48C7C"/>
<path fill-rule="evenodd" clip-rule="evenodd" d="M16.2038 24.9949C16.2008 25.0171 16.1843 25.0352 16.1672 25.0352C16.1324 25.0352 15.6716 25.3424 15.577 25.4289C15.5432 25.4597 15.4571 25.525 15.3856 25.5741C15.314 25.6232 15.2264 25.6875 15.1909 25.717C15.1554 25.7466 15.0615 25.8238 14.9823 25.8888C14.9031 25.9537 14.7823 26.0528 14.7139 26.1089C14.6454 26.1651 14.523 26.2737 14.4419 26.3502C14.3607 26.4269 14.2306 26.5429 14.1528 26.6079C13.9774 26.7548 13.3185 27.4152 13.3176 27.4453C13.3172 27.4574 13.22 27.5717 13.1016 27.6992C12.8452 27.9752 12.8052 28.0221 12.5806 28.3094C12.4856 28.4309 12.3996 28.5376 12.3895 28.5465C12.3794 28.5553 12.3364 28.6133 12.2938 28.6753C12.2512 28.7373 12.2015 28.8044 12.1833 28.8244C12.1652 28.8443 12.1287 28.8931 12.1023 28.9328C12.0759 28.9724 12.01 29.0648 11.9558 29.138C11.9017 29.2113 11.774 29.4017 11.6721 29.5612C11.5702 29.7206 11.4597 29.8904 11.4265 29.9384C11.3934 29.9864 11.3663 30.036 11.3663 30.0486C11.3663 30.0612 11.3464 30.0944 11.3221 30.1224C11.2978 30.1503 11.2237 30.2747 11.1575 30.3987C11.0912 30.5227 11.0262 30.6387 11.013 30.6564C10.9496 30.7418 10.5104 31.6505 10.3435 32.0416C10.3057 32.1302 10.2621 32.2316 10.2466 32.2671C10.1596 32.4662 9.99029 32.934 9.99029 32.9755C9.99029 33.0023 9.97589 33.0241 9.95829 33.0241C9.94069 33.0241 9.92621 33.0567 9.92613 33.0966C9.92597 33.1364 9.90581 33.2077 9.88133 33.255C9.85685 33.3022 9.82685 33.4001 9.81477 33.4724C9.80261 33.5447 9.78141 33.6039 9.76757 33.6039C9.75381 33.6039 9.73309 33.6758 9.72149 33.7637C9.70989 33.8516 9.68781 33.9313 9.67237 33.9409C9.65693 33.9505 9.63437 34.0307 9.62229 34.1193C9.61021 34.2079 9.58861 34.2876 9.57429 34.2965C9.55997 34.3054 9.53797 34.3882 9.52533 34.4804C9.51277 34.5727 9.49045 34.6706 9.47581 34.6979C9.44877 34.7483 9.40525 34.9653 9.34629 35.3434C9.32837 35.4586 9.30485 35.5746 9.29405 35.6011C9.26925 35.6622 9.20525 36.1259 9.13837 36.7286C9.09893 37.0843 9.08349 37.6238 9.07341 38.9916C9.06493 40.1469 9.04893 40.7875 9.02853 40.7875C9.00845 40.7875 9.00005 41.0027 9.00557 41.3754L9.01429 41.9632L12.6023 41.9715C15.4483 41.9779 16.197 41.9713 16.2231 41.9392C16.2456 41.9116 16.2485 39.2106 16.2326 33.4267C16.2198 28.7671 16.2068 24.9728 16.2038 24.9949ZM33.7988 31.5342C33.7984 35.8988 33.7875 38.1138 33.7663 38.1138C33.7249 38.1138 33.7245 38.3488 33.7658 38.3903C33.7856 38.4103 33.7978 39.0793 33.7988 40.2009L33.8004 41.9799L37.3993 41.9791L40.9983 41.9783V40.9866C40.9983 40.4001 40.9858 39.9825 40.9677 39.9643C40.9496 39.946 40.9314 39.2995 40.923 38.3713C40.9086 36.7927 40.8968 36.6026 40.7612 35.7622C40.6834 35.2797 40.6103 34.9245 40.4728 34.3609C40.3675 33.9293 40.3528 33.8756 40.3263 33.8253C40.3111 33.7965 40.2886 33.7167 40.2763 33.6481C40.264 33.5795 40.2431 33.5089 40.2298 33.4912C40.2165 33.4735 40.1955 33.4109 40.1829 33.3521C40.1705 33.2933 40.1401 33.2063 40.1155 33.1588C40.0908 33.1113 40.0706 33.0427 40.0704 33.0064C40.0704 32.97 40.0582 32.9266 40.0435 32.9097C40.0287 32.8929 39.9756 32.7632 39.9253 32.6214C39.8752 32.4797 39.8153 32.3275 39.7924 32.2832C39.7694 32.2389 39.7506 32.1909 39.7504 32.1765C39.75 32.1125 39.1512 30.8798 38.9495 30.5276C38.8785 30.4035 38.8119 30.2767 38.8016 30.2457C38.7912 30.2147 38.7701 30.1893 38.7545 30.1893C38.739 30.1893 38.7263 30.1761 38.7263 30.1599C38.7263 30.1437 38.6759 30.0535 38.6143 29.9593C38.5527 29.8652 38.5023 29.7709 38.5023 29.7498C38.5023 29.7288 38.4915 29.7067 38.4783 29.7007C38.4499 29.6881 38.3103 29.4917 38.3103 29.4644C38.3103 29.4541 38.2956 29.4282 38.2777 29.4068C38.1476 29.2515 38.1183 29.2079 38.1183 29.1697C38.1183 29.1458 38.1063 29.1263 38.0916 29.1263C38.0769 29.1263 38.0087 29.0429 37.94 28.9411C37.8713 28.8392 37.8059 28.7486 37.7946 28.7397C37.7639 28.7157 37.5423 28.4194 37.5423 28.4023C37.5423 28.3942 37.5027 28.3456 37.4543 28.2942C37.3461 28.1795 37.1204 27.9131 37.0243 27.7866C36.9321 27.6654 35.6928 26.4263 35.571 26.3336C35.52 26.2948 35.4332 26.2224 35.378 26.1726C35.3228 26.1228 35.2231 26.0387 35.1564 25.9855C35.0897 25.9324 34.9909 25.8523 34.9368 25.8077C34.7688 25.6692 34.3701 25.3756 34.1023 25.1934C33.9615 25.0975 33.8357 25.0046 33.8228 24.9869C33.8098 24.9692 33.799 27.9155 33.7988 31.5342ZM33.7417 37.9527C33.7417 38.0147 33.7483 38.0401 33.7564 38.0091C33.7644 37.9781 33.7644 37.9273 33.7564 37.8963C33.7483 37.8653 33.7417 37.8907 33.7417 37.9527Z" fill="#EC7453"/>
<path fill-rule="evenodd" clip-rule="evenodd" d="M23.817 4.03763C23.4394 4.05293 23.1226 4.07781 23.113 4.09303C23.1033 4.10825 22.9406 4.13113 22.7514 4.14393C22.5622 4.15682 22.4002 4.17888 22.3915 4.19306C22.3828 4.20715 22.2604 4.22905 22.1195 4.24162C21.9786 4.25418 21.8634 4.27617 21.8634 4.29058C21.8634 4.30492 21.7554 4.32682 21.6234 4.3393C21.4914 4.35171 21.3834 4.37329 21.3834 4.38722C21.3834 4.40107 21.297 4.42257 21.1914 4.4349C21.0858 4.44722 20.9994 4.46856 20.9994 4.48225C20.9994 4.49594 20.9274 4.51672 20.8394 4.52847C20.7514 4.54023 20.6794 4.56222 20.6794 4.57728C20.6794 4.59234 20.6002 4.61465 20.5034 4.62681C20.4066 4.63897 20.3274 4.66047 20.3274 4.67464C20.3274 4.68882 20.2554 4.71 20.1674 4.72175C20.0794 4.73351 20.0074 4.7555 20.0074 4.77056C20.0074 4.7857 19.9426 4.80784 19.8634 4.81976C19.7842 4.83176 19.7194 4.85326 19.7194 4.8676C19.7194 4.88201 19.6618 4.90303 19.5914 4.91439C19.521 4.92566 19.4634 4.94837 19.4634 4.9648C19.4634 4.98123 19.3986 5.00443 19.3194 5.01642C19.2402 5.02834 19.1754 5.05033 19.1754 5.06523C19.1754 5.08013 19.125 5.10187 19.0634 5.11347C19.0018 5.12514 18.9514 5.14737 18.9514 5.16291C18.9514 5.17846 18.8938 5.20044 18.8234 5.21172C18.753 5.22307 18.6954 5.24385 18.6954 5.25786C18.6954 5.27196 18.6522 5.29297 18.5994 5.30465C18.5466 5.31633 18.5034 5.33856 18.5034 5.3541C18.5034 5.36956 18.453 5.39179 18.3914 5.40339C18.3298 5.41506 18.2794 5.43632 18.2794 5.45066C18.2794 5.46499 18.2362 5.48625 18.1834 5.49793C18.1306 5.50961 18.0874 5.53135 18.0874 5.54625C18.0874 5.56115 18.0442 5.58289 17.9914 5.59457C17.9386 5.60625 17.8954 5.62799 17.8954 5.64289C17.8954 5.65779 17.8522 5.67953 17.7994 5.69121C17.7466 5.70289 17.7034 5.72463 17.7034 5.73953C17.7034 5.75443 17.6602 5.77617 17.6074 5.78785C17.5546 5.79953 17.5114 5.82127 17.5114 5.83617C17.5114 5.85107 17.4682 5.87281 17.4154 5.88449C17.3626 5.89617 17.3194 5.91751 17.3194 5.93184C17.3194 5.94626 17.2834 5.96712 17.2394 5.97823C17.1954 5.98934 17.1594 6.01157 17.1594 6.02752C17.1594 6.04346 17.1162 6.06609 17.0634 6.07777C17.0106 6.08945 16.9674 6.11232 16.9674 6.12867C16.9674 6.14493 16.9453 6.1583 16.9183 6.1583C16.8914 6.1583 16.8614 6.17916 16.8517 6.20469C16.842 6.23014 16.792 6.26026 16.7407 6.27161C16.6894 6.28297 16.6474 6.30536 16.6474 6.3213C16.6474 6.33725 16.6114 6.35947 16.5674 6.37059C16.5234 6.3817 16.4874 6.40369 16.4874 6.41947C16.4874 6.43534 16.4653 6.44822 16.4383 6.44822C16.4114 6.44822 16.3816 6.46868 16.3721 6.49364C16.3625 6.51861 16.3198 6.54784 16.277 6.55871C16.2343 6.5695 16.1994 6.59254 16.1994 6.60993C16.1994 6.62725 16.1773 6.6415 16.1503 6.6415C16.1234 6.6415 16.0936 6.66196 16.0841 6.68692C16.0745 6.71189 16.0318 6.74112 15.989 6.75199C15.9463 6.76278 15.9114 6.78581 15.9114 6.80321C15.9114 6.82052 15.8893 6.83478 15.8623 6.83478C15.8354 6.83478 15.805 6.85652 15.795 6.8831C15.7848 6.90967 15.7563 6.93142 15.7316 6.93142C15.707 6.93142 15.6621 6.96041 15.6319 6.99585C15.6018 7.03128 15.5587 7.06027 15.5362 7.06027C15.5138 7.06027 15.4954 7.0738 15.4954 7.09031C15.4954 7.10682 15.4686 7.12889 15.436 7.13935C15.4034 7.14974 15.335 7.20104 15.284 7.25331C15.233 7.30566 15.1789 7.34882 15.1636 7.3493C15.1354 7.35019 14.9886 7.46745 14.7984 7.64099C14.7406 7.69366 14.6811 7.73675 14.6662 7.73675C14.6513 7.73675 14.5906 7.79135 14.5312 7.85811C14.4719 7.92495 14.3802 8.00734 14.3274 8.04132C14.2133 8.11469 12.9994 9.33662 12.9994 9.37809C12.9994 9.39388 12.9346 9.47199 12.8554 9.55172C12.7762 9.63145 12.7114 9.70723 12.7114 9.72012C12.7114 9.733 12.661 9.79284 12.5994 9.85308C12.5378 9.91331 12.4867 9.97999 12.486 10.0013C12.4853 10.0226 12.4421 10.0756 12.39 10.119C12.3379 10.1625 12.2954 10.2115 12.2954 10.228C12.2954 10.2445 12.261 10.2901 12.2191 10.3293C12.1772 10.3684 12.1334 10.4303 12.1219 10.4669C12.1103 10.5035 12.0798 10.5415 12.0542 10.5514C12.0284 10.5614 12.0074 10.5917 12.0074 10.6188C12.0074 10.6459 11.9939 10.6681 11.9775 10.6681C11.9611 10.6681 11.9378 10.6994 11.9258 10.7376C11.9138 10.7758 11.8695 10.839 11.8276 10.8782C11.7857 10.9173 11.7514 10.9663 11.7514 10.9869C11.7514 11.0076 11.731 11.0323 11.7062 11.0419C11.6814 11.0516 11.6524 11.0946 11.6416 11.1376C11.6309 11.1806 11.608 11.2158 11.5907 11.2158C11.5735 11.2158 11.5594 11.238 11.5594 11.2651C11.5594 11.2922 11.5386 11.3224 11.5133 11.3322C11.488 11.342 11.4581 11.3923 11.4468 11.4439C11.4355 11.4956 11.4133 11.5379 11.3974 11.5379C11.3816 11.5379 11.3595 11.5741 11.3485 11.6184C11.3374 11.6627 11.3156 11.699 11.2999 11.699C11.2842 11.699 11.2714 11.7212 11.2714 11.7483C11.2714 11.7754 11.2506 11.8056 11.2253 11.8154C11.2 11.8252 11.1701 11.8755 11.1588 11.9271C11.1475 11.9788 11.1253 12.0211 11.1094 12.0211C11.0936 12.0211 11.0715 12.0573 11.0605 12.1016C11.0494 12.1459 11.0287 12.1822 11.0144 12.1822C11.0002 12.1822 10.979 12.2257 10.9674 12.2788C10.9558 12.332 10.933 12.3754 10.9168 12.3754C10.9006 12.3754 10.8874 12.3977 10.8874 12.4248C10.8874 12.4519 10.8666 12.4821 10.8413 12.4919C10.816 12.5016 10.7861 12.552 10.7748 12.6036C10.7635 12.6553 10.7422 12.6976 10.7274 12.6976C10.7126 12.6976 10.691 12.7411 10.6794 12.7942C10.6678 12.8474 10.6462 12.8909 10.6314 12.8909C10.6166 12.8909 10.595 12.9343 10.5834 12.9875C10.5718 13.0407 10.5492 13.0841 10.5332 13.0841C10.5172 13.0841 10.4949 13.1421 10.4837 13.213C10.4724 13.2839 10.4518 13.3418 10.4378 13.3418C10.4238 13.3418 10.403 13.3853 10.3914 13.4385C10.3798 13.4916 10.3577 13.5351 10.3422 13.5351C10.3269 13.5351 10.3048 13.5859 10.2933 13.6479C10.2817 13.7099 10.2606 13.7606 10.2463 13.7606C10.2321 13.7606 10.211 13.8041 10.1994 13.8573C10.1878 13.9104 10.1663 13.9539 10.1516 13.9539C10.137 13.9539 10.1153 14.0119 10.1034 14.0827C10.0914 14.1536 10.0698 14.2116 10.0554 14.2116C10.0409 14.2116 10.0193 14.2696 10.0074 14.3405C9.99543 14.4113 9.97383 14.4693 9.95935 14.4693C9.94487 14.4693 9.92327 14.5273 9.91135 14.5982C9.89943 14.669 9.87823 14.727 9.86415 14.727C9.85015 14.727 9.82887 14.7922 9.81703 14.872C9.80511 14.9517 9.78351 15.0169 9.76903 15.0169C9.75447 15.0169 9.73287 15.0822 9.72103 15.1619C9.70911 15.2416 9.68775 15.3068 9.67351 15.3068C9.65927 15.3068 9.63807 15.3793 9.62639 15.4679C9.61471 15.5565 9.59263 15.629 9.57735 15.629C9.56215 15.629 9.53959 15.716 9.52735 15.8223C9.51511 15.9286 9.49311 16.0231 9.47847 16.0322C9.46383 16.0413 9.44199 16.1283 9.42991 16.2254C9.41783 16.3226 9.39671 16.4021 9.38295 16.4021C9.36911 16.4021 9.34775 16.5036 9.33535 16.6276C9.32295 16.7516 9.30111 16.8531 9.28687 16.8531C9.27255 16.8531 9.25047 16.9654 9.23791 17.1027C9.22527 17.24 9.20359 17.3598 9.18967 17.3688C9.17575 17.3779 9.15399 17.5301 9.14127 17.7071C9.12863 17.8841 9.10751 18.0361 9.09439 18.045C9.01415 18.0992 8.99959 19.8004 9.00487 28.4821C9.00791 33.4517 9.01991 37.3946 9.03159 37.244C9.16495 35.5226 9.64447 33.4893 10.2281 32.1705C10.2516 32.1173 10.3049 31.9941 10.3466 31.8966C10.6295 31.2345 11.2779 30.0448 11.6701 29.4682C11.7437 29.3599 11.8677 29.177 11.9454 29.0619C12.3598 28.4489 12.9549 27.7502 13.7018 26.9999C14.2505 26.4488 14.3193 26.384 14.7124 26.0476C14.9808 25.8179 15.6579 25.3019 15.9443 25.1087C16.0768 25.0194 16.2013 24.9264 16.2209 24.9021C16.2462 24.8708 16.26 24.045 16.2687 22.0354C16.2774 20.0249 16.2912 19.1999 16.3166 19.1684C16.3362 19.144 16.3626 18.99 16.3752 18.8261C16.3878 18.6623 16.409 18.5282 16.4222 18.5282C16.4354 18.5282 16.4558 18.4237 16.4676 18.296C16.4794 18.1683 16.5016 18.056 16.517 18.0463C16.5323 18.0368 16.5552 17.9455 16.5678 17.8436C16.5804 17.7418 16.6026 17.6584 16.6171 17.6584C16.6316 17.6584 16.6531 17.5932 16.665 17.5135C16.6769 17.4337 16.6985 17.3685 16.713 17.3685C16.7275 17.3685 16.7491 17.3033 16.761 17.2235C16.7729 17.1438 16.7947 17.0786 16.8095 17.0786C16.8243 17.0786 16.8459 17.0278 16.8574 16.9658C16.869 16.9038 16.8911 16.8531 16.9066 16.8531C16.922 16.8531 16.9438 16.7951 16.955 16.7242C16.9663 16.6534 16.987 16.5954 17.0009 16.5954C17.0149 16.5954 17.0358 16.5519 17.0474 16.4987C17.059 16.4456 17.0806 16.4021 17.0954 16.4021C17.1102 16.4021 17.1318 16.3586 17.1434 16.3055C17.155 16.2523 17.1766 16.2088 17.1914 16.2088C17.2062 16.2088 17.2278 16.1653 17.2394 16.1122C17.251 16.059 17.2722 16.0155 17.2864 16.0155C17.3007 16.0155 17.3223 15.9758 17.3344 15.9273C17.3466 15.8787 17.3661 15.8316 17.3779 15.8226C17.4051 15.8017 17.4684 15.7007 17.5192 15.5968C17.5409 15.5525 17.5768 15.4971 17.599 15.4736C17.6212 15.4503 17.6394 15.4119 17.6394 15.3885C17.6394 15.3651 17.661 15.3376 17.6874 15.3274C17.7138 15.3172 17.7354 15.2866 17.7354 15.2596C17.7354 15.2324 17.7495 15.2102 17.7667 15.2102C17.784 15.2102 17.8069 15.175 17.8176 15.132C17.8284 15.089 17.8574 15.046 17.8822 15.0363C17.907 15.0268 17.9274 14.9967 17.9274 14.9697C17.9274 14.9425 17.9382 14.9202 17.9514 14.9201C17.9646 14.92 18.0114 14.8657 18.0554 14.7996C18.0994 14.7334 18.1678 14.6485 18.2074 14.6109C18.247 14.5732 18.2794 14.5318 18.2794 14.5188C18.2794 14.5057 18.3442 14.4289 18.4234 14.348C18.5026 14.2672 18.5674 14.1903 18.5674 14.1773C18.5674 14.1472 19.1064 13.5997 19.1367 13.5991C19.1492 13.5988 19.2195 13.5445 19.2931 13.4783C19.3667 13.4121 19.5021 13.3 19.594 13.2291C19.6859 13.1582 19.7877 13.0749 19.8202 13.0439C19.8527 13.0129 19.8871 12.9875 19.8966 12.9875C19.9227 12.9875 20.1178 12.8461 20.13 12.8184C20.1359 12.8051 20.1545 12.7942 20.1714 12.7942C20.1978 12.7942 20.3768 12.6799 20.4234 12.6332C20.4387 12.6179 20.6128 12.5206 20.8234 12.4098C20.8762 12.3821 20.9266 12.3496 20.9357 12.3378C20.9446 12.3258 20.9914 12.3062 21.0397 12.294C21.0879 12.2818 21.1274 12.26 21.1274 12.2456C21.1274 12.2313 21.1706 12.21 21.2234 12.1983C21.2762 12.1866 21.3194 12.1649 21.3194 12.15C21.3194 12.1351 21.3626 12.1133 21.4154 12.1016C21.4682 12.09 21.5114 12.0672 21.5114 12.0511C21.5114 12.035 21.569 12.0126 21.6394 12.0013C21.7098 11.9899 21.7674 11.9687 21.7674 11.954C21.7674 11.9394 21.8178 11.9179 21.8794 11.9063C21.941 11.8946 21.9914 11.8738 21.9914 11.8601C21.9914 11.8463 22.0562 11.8253 22.1354 11.8134C22.2146 11.8014 22.2794 11.7797 22.2794 11.7651C22.2794 11.7504 22.3442 11.7287 22.4234 11.7168C22.5026 11.7048 22.5674 11.6829 22.5674 11.668C22.5674 11.6531 22.6538 11.6308 22.7594 11.6184C22.865 11.6061 22.9514 11.5838 22.9514 11.5689C22.9514 11.554 23.0522 11.5318 23.1754 11.5196C23.2986 11.5074 23.3994 11.4861 23.3994 11.4724C23.3994 11.4586 23.5398 11.437 23.7114 11.4244C23.883 11.4118 24.0419 11.3864 24.0646 11.3681C24.1206 11.3226 25.9582 11.3231 25.9867 11.3685C25.9981 11.3866 26.1406 11.4119 26.3036 11.4248C26.4665 11.4376 26.6069 11.4596 26.6154 11.4736C26.6241 11.4877 26.732 11.5093 26.8552 11.5218C26.9785 11.5343 27.0794 11.5558 27.0794 11.5697C27.0794 11.5836 27.1586 11.6049 27.2554 11.6171C27.3522 11.6292 27.4314 11.6507 27.4314 11.6649C27.4314 11.6791 27.5034 11.7003 27.5914 11.712C27.6794 11.7238 27.7514 11.7458 27.7514 11.7608C27.7514 11.776 27.8162 11.7981 27.8954 11.81C27.9746 11.822 28.0394 11.8452 28.0394 11.8616C28.0394 11.8781 28.097 11.9008 28.1674 11.9121C28.2378 11.9234 28.2954 11.9447 28.2954 11.9593C28.2954 11.974 28.3458 11.9955 28.4074 12.0071C28.469 12.0188 28.5194 12.04 28.5194 12.0544C28.5194 12.0687 28.5626 12.09 28.6154 12.1016C28.6682 12.1133 28.7114 12.1351 28.7114 12.15C28.7114 12.1649 28.7546 12.1866 28.8074 12.1983C28.8602 12.21 28.9034 12.2317 28.9034 12.2466C28.9034 12.2615 28.9466 12.2832 28.9994 12.2949C29.0522 12.3066 29.0954 12.3283 29.0954 12.3432C29.0954 12.3581 29.1386 12.3799 29.1914 12.3916C29.2442 12.4032 29.2874 12.4259 29.2874 12.4418C29.2874 12.4578 29.3234 12.48 29.3674 12.4911C29.4114 12.5022 29.4474 12.5228 29.4474 12.5368C29.4474 12.5509 29.487 12.5782 29.5354 12.5973C29.6197 12.6307 29.7336 12.6958 29.7674 12.7298C29.8009 12.7635 29.9896 12.8909 30.0061 12.8909C30.0156 12.8909 30.0485 12.9128 30.0793 12.9397C30.2294 13.0706 30.3697 13.1808 30.3865 13.1808C30.3967 13.1808 30.4493 13.2243 30.5033 13.2774C30.5573 13.3306 30.6128 13.3741 30.6265 13.3741C30.6402 13.3741 30.7585 13.4799 30.8895 13.6092C31.0205 13.7385 31.1528 13.854 31.1835 13.8659C31.2142 13.8777 31.2393 13.9039 31.2393 13.924C31.2393 13.9441 31.3366 14.0582 31.4554 14.1775C31.5742 14.2969 31.7063 14.444 31.7489 14.5044C31.7917 14.5648 31.8457 14.6259 31.8689 14.64C31.8923 14.6542 31.9114 14.6815 31.9114 14.7008C31.9114 14.72 31.9457 14.7678 31.9876 14.8069C32.0295 14.846 32.0733 14.908 32.0848 14.9445C32.0964 14.9811 32.1269 15.0191 32.1526 15.029C32.1783 15.039 32.1994 15.0682 32.1994 15.0938C32.1994 15.1194 32.2101 15.1452 32.2233 15.1512C32.2597 15.1674 32.3913 15.364 32.3913 15.4022C32.3913 15.4206 32.4057 15.4357 32.4233 15.4357C32.4409 15.4357 32.4554 15.4564 32.4554 15.4817C32.4554 15.5071 32.4735 15.5469 32.4957 15.5703C32.5179 15.5937 32.5538 15.6491 32.5755 15.6934C32.6263 15.7973 32.6896 15.8984 32.7168 15.9192C32.7286 15.9282 32.7481 15.9754 32.7603 16.0239C32.7724 16.0725 32.794 16.1122 32.8083 16.1122C32.8225 16.1122 32.8438 16.1557 32.8554 16.2088C32.867 16.262 32.8885 16.3055 32.9033 16.3055C32.9181 16.3055 32.9397 16.3489 32.9513 16.4021C32.9629 16.4553 32.9838 16.4987 32.9978 16.4987C33.0117 16.4987 33.0324 16.5567 33.0437 16.6276C33.0549 16.6985 33.0777 16.7564 33.0943 16.7564C33.1109 16.7564 33.1339 16.8072 33.1454 16.8692C33.157 16.9312 33.1793 16.9819 33.195 16.9819C33.2106 16.9819 33.2234 17.0146 33.2235 17.0544C33.2237 17.0943 33.2453 17.1685 33.2715 17.2192C33.2978 17.2699 33.3194 17.3352 33.3195 17.3641C33.3197 17.3931 33.3409 17.4576 33.3667 17.5075C33.3926 17.5573 33.4231 17.6697 33.4346 17.7571C33.4462 17.8446 33.4667 17.9161 33.4803 17.9161C33.4939 17.9161 33.5151 18.0031 33.5274 18.1094C33.5396 18.2157 33.5611 18.3027 33.5752 18.3027C33.5892 18.3027 33.611 18.4223 33.6236 18.5684C33.6362 18.7146 33.6629 18.8546 33.6829 18.8794C33.7094 18.9122 33.7238 19.7419 33.7354 21.8936C33.7493 24.4766 33.7576 24.8687 33.7994 24.9088C33.8258 24.9342 33.9625 25.0338 34.1033 25.1303C37.0617 27.1566 39.235 30.1278 40.337 33.6523C40.6077 34.5178 40.8393 35.7047 40.9656 36.8736C40.979 36.9976 40.9921 33.0131 40.9946 28.0191C40.9992 19.214 40.9871 17.8753 40.9026 17.8195C40.8892 17.8106 40.8678 17.6765 40.855 17.5215C40.8422 17.3665 40.8208 17.2396 40.8074 17.2396C40.7939 17.2396 40.7727 17.1164 40.7602 16.9658C40.7478 16.8152 40.7257 16.692 40.711 16.692C40.6964 16.692 40.6744 16.5978 40.6621 16.4826C40.6499 16.3675 40.6285 16.2732 40.6148 16.2732C40.601 16.2732 40.5796 16.1863 40.5674 16.08C40.5551 15.9737 40.5331 15.8867 40.5185 15.8867C40.5039 15.8867 40.4821 15.807 40.47 15.7095C40.4579 15.6121 40.4358 15.5323 40.4208 15.5323C40.4058 15.5323 40.384 15.4599 40.3723 15.3713C40.3606 15.2827 40.3402 15.2102 40.3269 15.2102C40.3135 15.2102 40.2929 15.145 40.281 15.0653C40.2691 14.9855 40.2475 14.9203 40.233 14.9203C40.2185 14.9203 40.1969 14.8551 40.185 14.7753C40.1731 14.6956 40.151 14.6304 40.1359 14.6304C40.1208 14.6304 40.0984 14.5833 40.0862 14.5257C40.074 14.4681 40.0529 14.4065 40.0394 14.3888C40.0258 14.3711 40.0047 14.3094 39.9925 14.2519C39.9803 14.1943 39.957 14.1472 39.9408 14.1472C39.9246 14.1472 39.9113 14.1218 39.9112 14.0908C39.911 14.0598 39.8908 13.9955 39.8661 13.948C39.8415 13.9005 39.8117 13.8172 39.7998 13.7628C39.788 13.7084 39.7657 13.664 39.7502 13.664C39.7349 13.664 39.7128 13.6132 39.7013 13.5512C39.6897 13.4892 39.6686 13.4385 39.6543 13.4385C39.6401 13.4385 39.6189 13.395 39.6074 13.3418C39.5958 13.2887 39.5742 13.2452 39.5593 13.2452C39.5445 13.2452 39.5229 13.2017 39.5113 13.1486C39.4998 13.0954 39.4781 13.0519 39.4633 13.0519C39.4485 13.0519 39.427 13.0084 39.4153 12.9553C39.4038 12.9021 39.3822 12.8586 39.3673 12.8586C39.3526 12.8586 39.3309 12.8152 39.3193 12.762C39.3078 12.7089 39.2861 12.6654 39.2713 12.6654C39.2565 12.6654 39.2349 12.6219 39.2233 12.5687C39.2117 12.5156 39.1902 12.4721 39.1754 12.4721C39.1606 12.4721 39.139 12.4286 39.1273 12.3754C39.1158 12.3223 39.0933 12.2788 39.0774 12.2788C39.0616 12.2788 39.0395 12.2426 39.0285 12.1983C39.0174 12.154 38.9967 12.1177 38.9824 12.1177C38.9681 12.1177 38.9472 12.0755 38.9359 12.0238C38.9246 11.9721 38.8947 11.9218 38.8694 11.9121C38.8441 11.9022 38.8233 11.872 38.8233 11.845C38.8233 11.8178 38.8105 11.7956 38.7948 11.7956C38.7791 11.7956 38.7573 11.7594 38.7462 11.7151C38.7352 11.6708 38.7131 11.6345 38.6973 11.6345C38.6814 11.6345 38.6592 11.5923 38.6479 11.5406C38.6366 11.4889 38.6067 11.4386 38.5814 11.4289C38.5561 11.419 38.5354 11.3888 38.5354 11.3618C38.5354 11.3346 38.5212 11.3124 38.504 11.3124C38.4867 11.3124 38.4638 11.2772 38.4531 11.2342C38.4423 11.1912 38.4133 11.1482 38.3885 11.1385C38.3637 11.129 38.3433 11.0989 38.3433 11.0719C38.3433 11.0447 38.3299 11.0225 38.3135 11.0225C38.2971 11.0225 38.2738 10.9912 38.2617 10.9531C38.2498 10.9148 38.2055 10.8516 38.1636 10.8125C38.1217 10.7733 38.0874 10.7244 38.0874 10.7037C38.0874 10.683 38.0658 10.6578 38.0394 10.6476C38.0129 10.6374 37.9914 10.6087 37.9914 10.5838C37.9914 10.559 37.9626 10.5138 37.9274 10.4835C37.8922 10.4531 37.8633 10.4151 37.8633 10.3989C37.8633 10.3827 37.8273 10.336 37.7833 10.2949C37.7393 10.2538 37.7033 10.2061 37.7033 10.189C37.7033 10.1717 37.6602 10.1142 37.6074 10.0611C37.5546 10.0079 37.5113 9.9539 37.5113 9.94102C37.5113 9.92813 37.461 9.86838 37.3993 9.80814C37.3377 9.7479 37.2873 9.68621 37.2873 9.67099C37.2873 9.62042 35.8791 8.14497 35.8545 8.16977C35.848 8.1763 35.7654 8.10696 35.6708 8.01555C35.5762 7.92423 35.4179 7.78426 35.3189 7.70454C35.22 7.62481 35.1148 7.53727 35.0852 7.50997C35.0556 7.48275 34.9774 7.42476 34.9116 7.38111C34.8457 7.33755 34.7917 7.291 34.7916 7.27771C34.7914 7.26442 34.7693 7.25355 34.7423 7.25355C34.7154 7.25355 34.6853 7.23237 34.6754 7.20644C34.6655 7.18059 34.6278 7.1499 34.5914 7.13823C34.5551 7.12663 34.4936 7.08258 34.4547 7.04038C34.4158 6.99818 34.3672 6.96363 34.3467 6.96363C34.3262 6.96363 34.3016 6.94318 34.2921 6.91821C34.2825 6.89325 34.2397 6.86401 34.197 6.85314C34.1543 6.84235 34.1194 6.81932 34.1194 6.80192C34.1194 6.78461 34.0973 6.77035 34.0703 6.77035C34.0434 6.77035 34.0136 6.7499 34.0041 6.72493C33.9945 6.69997 33.9517 6.67073 33.909 6.65986C33.8663 6.64907 33.8314 6.62604 33.8314 6.60864C33.8314 6.59133 33.8093 6.57707 33.7823 6.57707C33.7554 6.57707 33.7256 6.55662 33.7161 6.53165C33.7065 6.50669 33.6637 6.47745 33.621 6.46658C33.5783 6.45579 33.5433 6.43389 33.5433 6.41794C33.5433 6.40199 33.5014 6.37961 33.45 6.36825C33.3987 6.3569 33.3487 6.32678 33.339 6.30133C33.3293 6.2758 33.2993 6.25494 33.2724 6.25494C33.2454 6.25494 33.2233 6.24206 33.2233 6.22619C33.2233 6.21041 33.1873 6.18842 33.1433 6.17731C33.0993 6.16619 33.0633 6.14397 33.0633 6.12802C33.0633 6.11208 33.0202 6.08945 32.9674 6.07777C32.9146 6.06609 32.8713 6.04435 32.8713 6.02945C32.8713 6.01455 32.8293 5.99305 32.778 5.98169C32.7267 5.97034 32.6767 5.94022 32.667 5.91477C32.6573 5.88924 32.6273 5.86838 32.6004 5.86838C32.5734 5.86838 32.5513 5.85501 32.5513 5.83875C32.5513 5.8224 32.5082 5.79953 32.4554 5.78785C32.4026 5.77617 32.3594 5.75443 32.3594 5.73953C32.3594 5.72463 32.3161 5.70289 32.2633 5.69121C32.2105 5.67953 32.1674 5.65779 32.1674 5.64289C32.1674 5.62799 32.1241 5.60625 32.0714 5.59457C32.0185 5.58289 31.9754 5.56018 31.9754 5.54408C31.9754 5.52797 31.9178 5.5055 31.8474 5.49423C31.777 5.48287 31.7194 5.46209 31.7194 5.44808C31.7194 5.43399 31.6761 5.41297 31.6233 5.40129C31.5705 5.38961 31.5274 5.36739 31.5274 5.35184C31.5274 5.33638 31.477 5.31415 31.4154 5.30256C31.3538 5.29088 31.3033 5.26865 31.3033 5.25311C31.3033 5.23757 31.2458 5.21558 31.1754 5.20431C31.105 5.19295 31.0473 5.17169 31.0473 5.15703C31.0473 5.14238 30.997 5.12088 30.9354 5.10928C30.8738 5.0976 30.8233 5.07537 30.8233 5.05983C30.8233 5.04429 30.7658 5.0223 30.6954 5.01103C30.625 4.99967 30.5674 4.97865 30.5674 4.96424C30.5674 4.9499 30.5025 4.9284 30.4233 4.9164C30.3441 4.90448 30.2794 4.88274 30.2794 4.86808C30.2794 4.85351 30.2146 4.83176 30.1354 4.81976C30.0562 4.80784 29.9914 4.7861 29.9914 4.77144C29.9914 4.75687 29.9265 4.73512 29.8474 4.72312C29.7682 4.7112 29.7034 4.69043 29.7034 4.67698C29.7034 4.66353 29.6313 4.64299 29.5433 4.63124C29.4553 4.61948 29.3834 4.59725 29.3834 4.58187C29.3834 4.56657 29.297 4.54386 29.1914 4.53154C29.0858 4.51921 28.9994 4.49747 28.9994 4.48322C28.9994 4.46896 28.913 4.44722 28.8074 4.4349C28.7018 4.42257 28.6154 4.40051 28.6154 4.38601C28.6154 4.37144 28.5215 4.34937 28.4069 4.33705C28.2922 4.32465 28.1914 4.30306 28.1828 4.28905C28.1742 4.27496 28.0448 4.25321 27.8953 4.24065C27.7457 4.22817 27.6234 4.20667 27.6234 4.19297C27.6234 4.17928 27.4758 4.15762 27.2954 4.1449C27.115 4.13217 26.953 4.11011 26.9354 4.09585C26.8982 4.06589 25.323 3.99768 24.8342 4.00493C24.6522 4.00759 24.1945 4.02233 23.817 4.03763Z" fill="#F45C2C"/>
<path fill-rule="evenodd" clip-rule="evenodd" d="M15.9757 25.1039C15.7523 25.2564 15.5649 25.4095 15.6873 25.3394C15.7134 25.3244 15.8251 25.2499 15.9355 25.1738C16.046 25.0977 16.149 25.0354 16.1645 25.0354C16.1801 25.0354 16.2011 25.0137 16.2113 24.9871C16.2354 24.9237 16.2499 24.9165 15.9757 25.1039ZM33.8199 24.981C33.8291 25.0021 33.9463 25.0918 34.0805 25.1804C34.3137 25.3345 34.7765 25.6733 34.9538 25.8198C35 25.8579 35.0921 25.9326 35.1585 25.9857C35.2745 26.0786 35.3136 26.1121 35.5163 26.293C35.6748 26.4344 35.7106 26.4317 35.5597 26.2898C35.1395 25.8948 33.7686 24.8636 33.8199 24.981ZM15.4637 25.4762C15.2997 25.6031 15.2286 25.6717 15.3037 25.6307C15.3301 25.6162 15.4093 25.5606 15.4797 25.507C15.5501 25.4534 15.6137 25.4051 15.621 25.3997C15.6283 25.3942 15.6283 25.3841 15.621 25.3772C15.6137 25.3704 15.5429 25.4149 15.4637 25.4762ZM15.0264 25.81C14.9179 25.8963 14.8179 25.9856 14.8042 26.0085C14.7773 26.0537 14.7981 26.039 15.0637 25.8254C15.1517 25.7546 15.2297 25.6928 15.237 25.6882C15.2443 25.6835 15.2443 25.6737 15.237 25.6664C15.2297 25.6591 15.1349 25.7237 15.0264 25.81ZM14.5192 26.2371C14.3962 26.3463 14.2309 26.4995 14.1517 26.5775L14.0077 26.7193L14.1357 26.6199C14.2061 26.5652 14.3385 26.449 14.4301 26.3617C14.5215 26.2744 14.6367 26.1733 14.686 26.1372C14.7353 26.101 14.7681 26.0641 14.7591 26.055C14.7501 26.0459 14.6421 26.1278 14.5192 26.2371ZM36.3337 27.066C36.6694 27.4033 36.9499 27.6734 36.9569 27.6662C36.9745 27.6487 35.7861 26.4528 35.7512 26.4528C35.7359 26.4528 35.9981 26.7287 36.3337 27.066ZM13.0061 27.7488C12.6689 28.1319 12.3432 28.5472 12.3813 28.5454C12.3958 28.5447 12.4712 28.4583 12.5488 28.3536C12.6265 28.2489 12.7316 28.1153 12.7825 28.057C12.9877 27.8214 13.1081 27.6872 13.2171 27.5728C13.28 27.5067 13.3237 27.4448 13.3143 27.4353C13.3049 27.4258 13.1661 27.5669 13.0061 27.7488ZM37.0803 27.8537C37.1503 27.9421 37.2293 28.0368 37.2557 28.0641C37.2821 28.0915 37.3457 28.1677 37.3973 28.2334C37.4487 28.2991 37.4973 28.3464 37.5052 28.3385C37.5224 28.3211 37.1346 27.849 37.028 27.7575C36.9867 27.722 37.0102 27.7653 37.0803 27.8537ZM37.5437 28.4015C37.5437 28.4307 37.7746 28.7237 37.8074 28.7359C37.8253 28.7426 37.7786 28.6665 37.7039 28.5668C37.5765 28.397 37.5437 28.3631 37.5437 28.4015ZM12.2043 28.7283C11.4392 29.7746 10.0683 32.2131 10.3402 32.0439C10.3597 32.0318 10.3757 32.0077 10.3757 31.9903C10.3757 31.9339 10.9385 30.7587 11.0144 30.6566C11.0276 30.6389 11.0926 30.523 11.1589 30.3989C11.2251 30.2749 11.2992 30.1506 11.3235 30.1226C11.3478 30.0946 11.3677 30.0614 11.3677 30.0488C11.3677 30.0362 11.3948 29.9866 11.4279 29.9386C11.4611 29.8906 11.5716 29.7208 11.6735 29.5614C11.7754 29.4019 11.9031 29.2116 11.9572 29.1383C12.0113 29.065 12.0773 28.9726 12.1037 28.933C12.1301 28.8934 12.1665 28.8446 12.1847 28.8246C12.2029 28.8046 12.2507 28.7412 12.2909 28.6836C12.4037 28.522 12.3257 28.5623 12.2043 28.7283ZM37.8541 28.8131C37.9649 28.99 38.0689 29.1265 38.0929 29.1265C38.1088 29.1265 38.0619 29.0468 37.9889 28.9493C37.8694 28.79 37.7885 28.7082 37.8541 28.8131ZM38.1197 29.186C38.1197 29.201 38.1485 29.2467 38.1837 29.2876C38.2189 29.3284 38.2477 29.3741 38.2477 29.3891C38.2477 29.4042 38.2623 29.4164 38.2801 29.4164C38.298 29.4164 38.2745 29.3584 38.2279 29.2876C38.1424 29.1575 38.1197 29.1362 38.1197 29.186ZM38.3177 29.4728C38.3608 29.5636 38.4598 29.7059 38.4801 29.7061C38.4936 29.7063 38.4665 29.6484 38.4199 29.5775C38.3462 29.4655 38.2841 29.4019 38.3177 29.4728ZM38.5037 29.7634C38.5037 29.7771 38.5541 29.8654 38.6157 29.9595C38.6773 30.0537 38.7277 30.144 38.7277 30.1602C38.7277 30.1763 38.7437 30.1895 38.7633 30.1895C38.7864 30.1895 38.7826 30.1639 38.7526 30.1171C38.7271 30.0772 38.6665 29.9757 38.6179 29.8916C38.5325 29.7436 38.5037 29.7113 38.5037 29.7634ZM38.7917 30.2475C38.7917 30.2617 38.8049 30.2871 38.8213 30.3039C38.8657 30.35 39.053 30.6996 39.3082 31.2131C39.4339 31.466 39.5428 31.6668 39.5501 31.6594C39.5783 31.6312 38.8477 30.2218 38.8049 30.2218C38.7976 30.2218 38.7917 30.2334 38.7917 30.2475ZM39.5779 31.768C39.5894 31.8123 39.6117 31.8623 39.6273 31.8791C39.6729 31.9283 39.6589 31.8577 39.6052 31.768L39.557 31.6875L39.5779 31.768ZM39.7123 32.074C39.746 32.1626 39.7833 32.2625 39.7953 32.296C39.8073 32.3296 39.8237 32.3505 39.8317 32.3424C39.8505 32.3236 39.7245 31.9873 39.6829 31.9452C39.6654 31.9274 39.6786 31.9854 39.7123 32.074ZM10.2514 32.1582C9.91205 33.0273 9.91309 33.0243 9.95965 33.0243C9.97725 33.0243 9.99165 33.0025 9.99165 32.9757C9.99165 32.9288 10.1709 32.4433 10.269 32.2245C10.2955 32.1654 10.3091 32.109 10.2993 32.0991C10.2895 32.0892 10.2679 32.1158 10.2514 32.1582ZM39.8559 32.4203C39.8641 32.4425 39.9041 32.5548 39.9445 32.67C40.0199 32.8847 40.0927 33.0144 40.0427 32.845C39.9922 32.6741 39.8754 32.38 39.8579 32.38C39.8485 32.38 39.8476 32.3982 39.8559 32.4203ZM40.0718 33.0109C40.072 33.0448 40.093 33.1131 40.1187 33.1626C40.1443 33.212 40.1746 33.3028 40.1861 33.3642C40.1976 33.4257 40.2197 33.4839 40.2353 33.4937C40.2749 33.5183 40.2737 33.5131 40.1798 33.2293C40.0878 32.9514 40.0716 32.9186 40.0718 33.0109ZM9.87237 33.1681C9.85109 33.2378 9.84005 33.3012 9.84781 33.309C9.86989 33.3312 9.93133 33.1478 9.92061 33.0918C9.91533 33.0641 9.89357 33.0985 9.87237 33.1681ZM9.78765 33.4225C9.77677 33.466 9.75909 33.5246 9.74837 33.5528C9.73757 33.581 9.74317 33.6041 9.76069 33.6041C9.77821 33.6041 9.80229 33.552 9.81413 33.4881C9.83885 33.3557 9.81749 33.3028 9.78765 33.4225ZM40.2816 33.6525C40.2921 33.7233 40.3149 33.7958 40.3324 33.8135C40.367 33.8486 40.3397 33.7023 40.2903 33.588C40.2717 33.5449 40.2688 33.5661 40.2816 33.6525ZM9.67333 33.7894C9.63149 33.941 9.63037 33.981 9.66917 33.9408C9.70333 33.9053 9.75165 33.6686 9.72469 33.6686C9.71477 33.6686 9.69165 33.7229 9.67333 33.7894ZM40.3597 33.897C40.3597 33.9222 40.3752 33.9934 40.3941 34.0554C40.4361 34.1928 40.5069 34.4859 40.5636 34.7562C40.6105 34.9804 40.6661 35.0793 40.6313 34.8766C40.5746 34.5473 40.3597 33.7718 40.3597 33.897ZM9.57941 34.1338C9.53613 34.307 9.53493 34.3351 9.57237 34.2951C9.60341 34.262 9.65501 33.9907 9.63029 33.9907C9.62197 33.9907 9.59917 34.0551 9.57941 34.1338ZM9.48229 34.5077C9.44037 34.7046 9.43973 34.7208 9.47589 34.6817C9.50653 34.6485 9.55733 34.345 9.53229 34.345C9.52381 34.345 9.50133 34.4183 9.48229 34.5077ZM9.38805 34.9142C9.34525 35.1289 9.34333 35.1846 9.38109 35.1182C9.41189 35.064 9.46173 34.7316 9.43909 34.7316C9.43101 34.7316 9.40813 34.8138 9.38805 34.9142ZM40.6672 35.1987C40.6775 35.305 40.6993 35.4137 40.7156 35.4403C40.7347 35.4714 40.7376 35.4314 40.7237 35.3282C40.6899 35.0763 40.6454 34.9744 40.6672 35.1987ZM9.30477 35.3195C9.29349 35.3948 9.27629 35.4999 9.26653 35.553C9.25477 35.6177 9.25957 35.6391 9.28101 35.6175C9.31445 35.584 9.37037 35.1826 9.34157 35.1826C9.33261 35.1826 9.31605 35.2442 9.30477 35.3195ZM40.7627 35.7255C40.7723 35.8558 40.7933 35.9936 40.8092 36.0316C40.844 36.1145 40.8133 35.7506 40.7722 35.5923C40.7542 35.5231 40.751 35.5674 40.7627 35.7255ZM9.21181 35.851C9.17157 36.1289 9.15997 36.3249 9.18749 36.2617C9.22013 36.187 9.27013 35.7302 9.24573 35.7302C9.23669 35.7302 9.22141 35.7846 9.21181 35.851ZM40.8603 36.4122C40.8697 36.5835 40.8901 36.7792 40.9057 36.847C40.9213 36.9149 40.9345 37.64 40.9349 38.4584C40.9354 39.5056 40.9461 39.9528 40.9709 39.9683C41.0186 39.998 40.9912 37.135 40.9403 36.7771C40.8372 36.0515 40.8419 36.0734 40.8603 36.4122ZM9.11605 36.6161C9.10493 36.7401 9.07933 36.9648 9.05925 37.1154C9.00893 37.4925 8.98093 40.7877 9.02805 40.7877C9.05221 40.7877 9.06573 40.2579 9.07301 39.024C9.07949 37.9265 9.09853 37.1104 9.12341 36.8634C9.14541 36.645 9.15733 36.4493 9.14989 36.4285C9.14237 36.4077 9.12717 36.4921 9.11605 36.6161ZM33.7434 40.1528C33.7479 41.1399 33.7629 41.951 33.7767 41.9554C33.8148 41.9677 33.805 38.4286 33.7669 38.3902C33.7459 38.3691 33.7379 38.9661 33.7434 40.1528Z" fill="#F16C46"/>
<path fill-rule="evenodd" clip-rule="evenodd" d="M35.5591 26.2692C35.5591 26.2748 35.6059 26.3219 35.6631 26.3739L35.7671 26.4685L35.6731 26.3638C35.5855 26.2662 35.5591 26.2443 35.5591 26.2692ZM13.9581 26.7343L13.7511 26.9517L13.9671 26.7433C14.1677 26.5496 14.1977 26.5168 14.1741 26.5168C14.1693 26.5168 14.0721 26.6147 13.9581 26.7343ZM35.8791 26.5591C35.8791 26.5647 35.9259 26.6118 35.9831 26.6638L36.0871 26.7584L35.9931 26.6538C35.9055 26.5561 35.8791 26.5342 35.8791 26.5591ZM13.3341 27.3624L13.1431 27.5638L13.3431 27.3715C13.5289 27.1929 13.5577 27.1611 13.5341 27.1611C13.5292 27.1611 13.4392 27.2517 13.3341 27.3624ZM36.7591 27.451C36.8278 27.5219 36.8912 27.5799 36.9 27.5799C36.9088 27.5799 36.8598 27.5219 36.7911 27.451C36.7224 27.3802 36.6589 27.3222 36.6501 27.3222C36.6413 27.3222 36.6904 27.3802 36.7591 27.451ZM40.6346 34.9084C40.6609 35.0269 40.6792 35.0525 40.6786 34.9702C40.6784 34.9362 40.6635 34.8866 40.6456 34.8601C40.6219 34.8248 40.6189 34.8378 40.6346 34.9084ZM9.13517 36.2936C9.13549 36.3644 9.14205 36.3896 9.14973 36.3495C9.15741 36.3095 9.15709 36.2515 9.14909 36.2207C9.14109 36.1899 9.13477 36.2227 9.13517 36.2936ZM40.9252 36.7123C40.9351 36.8186 40.9485 36.9116 40.9551 36.9191C40.9765 36.943 40.9603 36.7151 40.9335 36.6157C40.9163 36.5521 40.9135 36.5852 40.9252 36.7123ZM9.04653 36.9953C9.03461 37.0919 9.03069 37.1982 9.03789 37.2315C9.04509 37.2649 9.06221 37.1932 9.07589 37.0722C9.08957 36.9512 9.09341 36.8449 9.08453 36.8359C9.07565 36.827 9.05853 36.8987 9.04653 36.9953ZM40.9762 37.2277C40.9764 37.3163 40.9827 37.3488 40.99 37.2998C40.9974 37.2508 40.9972 37.1783 40.9896 37.1388C40.982 37.0991 40.976 37.1392 40.9762 37.2277ZM9.00781 37.6304C9.00781 37.7101 9.01405 37.7428 9.02165 37.7029C9.02933 37.663 9.02933 37.5978 9.02165 37.5579C9.01405 37.5181 9.00781 37.5507 9.00781 37.6304Z" fill="#F4643C"/>
</g>
<defs>
<clipPath id="clip0_127_4232">
<rect width="32" height="38" fill="white" transform="translate(9 4)"/>
</clipPath>
</defs>
</svg>
