<svg width="50" height="50" viewBox="0 0 50 50" fill="none" xmlns="http://www.w3.org/2000/svg">
<path d="M25 50C38.8071 50 50 38.8071 50 25C50 11.1929 38.8071 0 25 0C11.1929 0 0 11.1929 0 25C0 38.8071 11.1929 50 25 50Z" fill="#FFFEFE"/>
<g clip-path="url(#clip0_183_46)">
<path fill-rule="evenodd" clip-rule="evenodd" d="M25.6698 8C28.5285 7.99823 31.3396 8.74615 33.8321 10.1717C36.3248 11.5973 38.4149 13.6525 39.9013 16.1394C38.7517 16.1227 37.6103 16.3389 36.5436 16.7754C35.4767 17.2119 34.5058 17.8599 33.687 18.6819C32.8683 19.5038 32.2182 20.4834 31.7744 21.5635C31.3307 22.6435 31.1022 23.8028 31.1022 24.9736C31.1022 26.1444 31.3307 27.3035 31.7744 28.3836C32.2182 29.4638 32.8683 30.4432 33.687 31.2652C34.5058 32.0872 35.4767 32.7352 36.5436 33.1717C37.6103 33.6082 38.7517 33.8244 39.9013 33.8077C38.3873 36.3376 36.2497 38.42 33.7006 39.8478C31.1516 41.2755 28.28 41.999 25.3713 41.9462C22.4626 41.8935 19.618 41.0664 17.1205 39.5471C14.6229 38.0277 12.5594 35.8693 11.1349 33.2861C9.7104 30.7029 8.97461 27.785 9.00067 24.8224C9.02672 21.8599 9.81371 18.9559 11.2834 16.3991C12.7531 13.8423 14.8543 11.7217 17.3781 10.2483C19.902 8.77478 22.7606 7.99968 25.6698 8Z" fill="#FFC780"/>
<path fill-rule="evenodd" clip-rule="evenodd" d="M39.9295 16.0947C38.78 16.0781 37.6386 16.2942 36.5718 16.7307C35.505 17.1672 34.534 17.8152 33.7153 18.6372C32.8965 19.4592 32.2464 20.4387 31.8027 21.5188C31.3589 22.599 31.1304 23.7581 31.1304 24.9289C31.1304 26.0997 31.3589 27.2589 31.8027 28.339C32.2464 29.4191 32.8965 30.3985 33.7153 31.2205C34.534 32.0426 35.505 32.6905 36.5718 33.127C37.6386 33.5635 38.78 33.7797 39.9295 33.763L39.8785 33.8491C38.1845 35.4134 36.0805 36.4426 33.8226 36.8113C31.5648 37.18 29.2503 36.8724 27.161 35.9258C25.0717 34.9792 23.2976 33.4345 22.0547 31.4799C20.8117 29.5251 20.1535 27.2445 20.1602 24.9157C20.1669 22.5869 20.8382 20.3104 22.0924 18.363C23.3465 16.4157 25.1295 14.8817 27.2242 13.9476C29.3189 13.0135 31.6351 12.7197 33.8908 13.1018C36.1466 13.484 38.2445 14.5257 39.9295 16.1001V16.0947Z" fill="url(#paint0_linear_183_46)"/>
</g>
<defs>
<linearGradient id="paint0_linear_183_46" x1="30.041" y1="36.9633" x2="30.041" y2="12.9322" gradientUnits="userSpaceOnUse">
<stop stop-color="#FFC780"/>
<stop offset="1" stop-color="#964B48"/>
</linearGradient>
<clipPath id="clip0_183_46">
<rect width="31" height="34" fill="white" transform="translate(9 8)"/>
</clipPath>
</defs>
</svg>
