<svg width="50" height="50" viewBox="0 0 50 50" fill="none" xmlns="http://www.w3.org/2000/svg">
<circle cx="25" cy="25" r="25" fill="#FFFEFE"/>
<path d="M26.1887 34.0861L25.7772 34.1804H25.7463C25.7165 34.1905 25.6856 34.1905 25.6558 34.2021L25.5529 34.2224C20.1886 35.4562 15.6515 35.6215 11.6905 34.7313C10.6236 34.4848 9.05463 34.0687 7.71304 33.2568C6.12865 32.2985 5.22739 30.9965 5.03809 29.3843C4.56071 25.4393 8.70277 22.2787 10.068 21.2479C13.6885 18.4787 18.1515 16.4924 23.7041 15.1687C29.2567 13.845 33.9389 13.642 37.9997 14.5786C40.651 15.1861 44.2261 16.3938 44.6541 19.9227C45.0821 23.4516 41.9884 26.2541 39.6232 28.0577C36.0912 30.7486 31.7753 32.6972 26.4192 34.0252L26.3163 34.047C26.2865 34.0586 26.2556 34.0586 26.2258 34.0687C26.1959 34.0789 26.1959 34.0861 26.1887 34.0861ZM25.7268 33.873H25.7412L26.1579 33.7657H26.1661C26.1959 33.7556 26.2268 33.7556 26.2566 33.7454L26.3595 33.7237C31.6888 32.4116 35.9842 30.4674 39.5007 27.7881C44.865 23.6981 44.5224 20.9014 44.4175 19.9836C43.9792 16.2691 39.4493 15.2325 37.9637 14.9092C33.9255 13.9915 29.2752 14.1843 23.7442 15.508C18.2133 16.8317 13.78 18.7991 10.1791 21.5378C4.81072 25.6307 5.15126 28.4274 5.25723 29.3466C5.70374 33.0611 10.2347 34.0861 11.7224 34.4283C15.6618 35.3243 20.1773 35.1648 25.5179 33.9267L25.6208 33.9049C25.6507 33.8948 25.6815 33.8948 25.7114 33.8832L25.7268 33.873Z" fill="#002FA7"/>
<path d="M25.7926 32.5812C25.6898 32.603 25.5735 32.6349 25.4521 32.6552C25.2247 32.7088 24.9675 32.7625 24.6866 32.8262L24.6568 32.8378C24.5354 32.8581 24.4068 32.8915 24.27 32.9118C24.1331 32.9321 24.02 32.9654 23.8842 32.9872H23.8626C23.6568 33.0292 23.4387 33.0611 23.2185 33.1046H23.1887L22.9078 33.1467C22.8317 33.1583 22.7483 33.1684 22.6732 33.1902H22.6629C20.9438 33.4569 19.3069 33.6164 17.8069 33.6483C15.0795 33.7019 12.8901 33.3496 11.3139 32.603C9.80259 31.8868 8.84167 30.7979 8.46512 29.3669C8.40009 29.1212 8.35186 28.8673 8.32108 28.6087C8.18836 27.4894 8.38178 26.3788 8.90443 25.3219C9.63181 23.8576 11.0104 22.4396 13.0033 21.1493C14.8696 19.9271 17.2307 18.8296 20.0178 17.8712C21.7833 17.2623 23.2 16.8998 23.8893 16.7432C24.5786 16.5867 26.0262 16.2633 27.8143 16.0082C29.7835 15.7255 32.6621 15.4732 35.2146 15.8269C37.404 16.1256 39.0409 16.8186 40.0717 17.8973C40.7919 18.6556 41.2302 19.5936 41.3588 20.7143C41.3905 20.9825 41.4032 21.2545 41.3969 21.5262C41.366 23.0529 40.722 24.5144 39.4874 25.8757C38.1736 27.3125 36.19 28.6667 33.5912 29.8845C32.1508 30.5573 30.5674 31.1662 28.8781 31.7099C28.821 31.7329 28.7629 31.7508 28.7042 31.7635L28.1209 31.9418C27.9686 31.9839 27.8256 32.0274 27.6816 32.0694L27.5375 32.1115L27.2958 32.1767C27.2124 32.197 27.1209 32.2289 27.0283 32.2507L26.8853 32.2942C26.6044 32.3681 26.3472 32.4391 26.1198 32.4957C26.0149 32.5276 25.9007 32.5566 25.7926 32.5812ZM23.1722 32.7943H23.2103C23.4222 32.7625 23.6342 32.7204 23.8389 32.6769H23.8626C23.9922 32.6552 24.1208 32.6233 24.2494 32.603C24.378 32.5827 24.5159 32.5493 24.6352 32.5276L24.665 32.5174C24.9459 32.4522 25.199 32.4 25.4233 32.3565C25.6661 32.3029 25.8554 32.2623 26.0982 32.197C26.3245 32.1434 26.5817 32.068 26.8626 31.994L27.0067 31.9505C27.09 31.9288 27.1805 31.9085 27.2639 31.8766L27.4995 31.8114L27.6435 31.7693C27.7875 31.7273 27.9316 31.6838 28.0828 31.6417L28.6651 31.4605C28.7258 31.4388 28.7793 31.4272 28.84 31.4069C30.5273 30.8733 32.0994 30.2542 33.5325 29.5888C36.1046 28.3825 38.0696 27.0487 39.3577 25.6278C40.5388 24.3302 41.153 22.9514 41.1839 21.5219C41.1901 21.2699 41.1777 21.0178 41.1469 20.7694C41.0255 19.7371 40.6139 18.8585 39.9421 18.1597C38.9421 17.1274 37.3515 16.4417 35.2002 16.1532C32.6621 15.811 29.7979 16.0589 27.8431 16.3344C26.056 16.5809 24.6239 16.8984 23.9335 17.0593C23.2432 17.2202 21.8275 17.5928 20.0775 18.1902C17.3449 19.1297 14.9262 20.2518 13.101 21.4465C11.1462 22.7209 9.80053 24.0881 9.08859 25.5176C8.60401 26.5006 8.42293 27.5358 8.54331 28.571C8.5719 28.8112 8.61633 29.0471 8.67603 29.2756C9.032 30.621 9.94251 31.6461 11.388 32.329C12.9415 33.0655 15.1 33.4076 17.8048 33.354C19.3048 33.3221 20.9335 33.1728 22.6465 32.8958H22.6609C22.7396 32.8872 22.8179 32.8727 22.8955 32.8523L23.1681 32.7987L23.1722 32.7943Z" fill="#002FA7"/>
<path d="M16.9385 29.4525L16.9159 29.4423H16.8943L16.9159 29.741C16.9828 29.7308 17.0445 29.7308 17.1155 29.7207C17.2931 29.7011 17.4715 29.6968 17.6495 29.7076C17.4089 29.6438 17.1715 29.5586 16.9385 29.4525ZM19.4983 29.9469H19.4921V29.9643H19.5075L19.4983 29.9469ZM41.3526 20.7317C41.2189 19.6096 40.7796 18.6715 40.0604 17.9133C39.0316 16.8346 37.3937 16.1401 35.2033 15.8414C32.6508 15.4891 29.7721 15.7472 27.8061 16.0227C26.0231 16.2793 24.5827 16.5881 23.8821 16.7606C23.1815 16.9332 21.772 17.2855 20.0065 17.8915C17.2194 18.8527 14.8552 19.9517 12.992 21.1696C11.0022 22.4599 9.62049 23.8692 8.89311 25.3436C8.37046 26.3991 8.17293 27.5184 8.30976 28.6304C8.3338 28.8242 8.36819 29.0152 8.41265 29.2017C8.42705 29.2654 8.44248 29.3263 8.45791 29.3901C8.4682 29.4293 8.47952 29.4684 8.49084 29.5061C8.89105 30.8791 9.83963 31.9288 11.3067 32.6247C12.8829 33.3757 15.0722 33.7237 17.7986 33.67H17.8439L17.8748 33.6178C18.2678 33.0379 18.6906 32.4246 19.1145 31.9085C19.1226 31.8976 19.1312 31.8874 19.1402 31.878L19.3748 31.5881H19.0137C16.991 31.6156 15.3603 31.3605 14.1679 30.8124H14.1566H14.171C15.2183 30.2194 16.0846 29.8903 16.884 29.7642H16.8892C17.5855 30.0455 18.3032 30.2081 19.0271 30.2484C18.5348 30.2105 18.045 30.1252 17.561 29.9933L17.3038 29.9135L17.2009 29.87C17.098 29.8323 17.0013 29.7932 16.9087 29.7511L16.8861 29.7439H16.8789C16.7389 29.6841 16.6015 29.6129 16.4673 29.5308C15.6875 29.7134 14.8294 30.0817 13.815 30.6906L13.5671 30.8356L13.5516 30.8458L13.8181 30.9907C15.0064 31.62 16.6834 31.9404 18.7873 31.9302C18.4314 32.3782 18.0908 32.8799 17.7647 33.3598C15.0825 33.4134 12.9467 33.0611 11.4014 32.3347C10.0063 31.678 9.11122 30.7008 8.72644 29.4235C8.71101 29.3771 8.69763 29.3307 8.68426 29.2785C8.67088 29.2263 8.65751 29.1741 8.64516 29.1205C8.60389 28.9417 8.57157 28.759 8.54845 28.5739C8.42705 27.5401 8.60915 26.5021 9.09373 25.5205C9.79539 24.091 11.1401 22.7238 13.0948 21.4537C14.921 20.2576 17.3377 19.134 20.0713 18.1974C21.8203 17.6001 23.2391 17.226 23.9284 17.0651C24.6177 16.9042 26.0488 16.5852 27.8379 16.3402C29.7927 16.0502 32.656 15.8168 35.1941 16.159C37.3454 16.4489 38.9359 17.1289 39.937 18.1655C40.6109 18.8701 41.0193 19.7458 41.1407 20.7752C41.1724 21.0229 41.1851 21.2747 41.1788 21.5262C41.1489 22.9572 40.5347 24.3331 39.3536 25.6365C38.0727 27.0457 36.1262 28.3796 33.5737 29.5757C33.1488 29.2669 32.694 28.9465 32.2362 28.6681C34.2198 27.6851 35.727 26.6123 36.7229 25.4857L36.9431 25.2291H36.8978L36.655 25.2103C35.2455 25.0827 34.193 25.19 33.3514 25.5307L33.3288 25.5423L33.3062 25.5626C32.7144 26.1312 32.0791 26.6039 31.4121 26.9718L31.3092 27.0255C31.1035 27.1429 30.8853 27.2603 30.6662 27.3662L30.5294 27.4314V27.3966C30.5376 27.3212 30.5458 27.2516 30.552 27.1719C30.5911 26.7441 30.6076 26.3128 30.6014 25.8815C30.6024 25.8133 30.6003 25.745 30.5952 25.6771C30.589 25.609 30.5901 25.5408 30.586 25.4712C30.5818 25.4016 30.5767 25.3262 30.5736 25.261C30.5705 25.1958 30.5623 25.116 30.5551 25.0522C30.5469 24.958 30.5366 24.8638 30.5252 24.7695C30.5139 24.6753 30.4975 24.5825 30.4851 24.4882C30.479 24.4419 30.4718 24.394 30.4646 24.3433C30.3515 23.6156 30.1644 22.9149 29.909 22.2628C29.8218 22.0415 29.7267 21.8266 29.624 21.619C29.5931 21.5552 29.5612 21.49 29.5273 21.4305C29.4933 21.3711 29.4717 21.3233 29.4419 21.2711C29.4121 21.2189 29.3802 21.158 29.3472 21.1029C28.9922 20.4897 28.574 19.9551 28.1065 19.5168C27.7386 19.1684 27.342 18.8846 26.9254 18.6715C26.06 18.2318 25.1315 18.0964 24.2206 18.2772C24.1311 18.29 24.0422 18.3094 23.9541 18.3352H23.9305C23.0278 18.5898 22.1827 19.1506 21.4685 19.9691C21.14 20.3387 20.8446 20.7633 20.5888 21.2334L20.5672 21.2711C20.3942 21.585 20.2377 21.9165 20.0991 22.2628C20.0724 22.3323 20.0466 22.4077 20.0209 22.473C19.9952 22.5382 19.9798 22.5861 19.9612 22.6441C19.9427 22.7021 19.9273 22.7368 19.9129 22.789C19.8378 23.0229 19.7712 23.2619 19.7133 23.5053C19.6968 23.5705 19.6814 23.6372 19.666 23.7024C19.6505 23.7677 19.6382 23.8329 19.6248 23.8996C19.6114 23.9663 19.6042 24.0011 19.595 24.0518C19.597 24.0613 19.597 24.0714 19.595 24.0808C19.5906 24.0973 19.5872 24.1143 19.5847 24.1316C19.5754 24.1765 19.5682 24.2258 19.561 24.2679V24.2983C19.5549 24.3346 19.5497 24.3694 19.5446 24.4056C19.5394 24.4419 19.5343 24.4708 19.5302 24.4998C19.5199 24.568 19.5116 24.6448 19.5024 24.7072C19.4839 24.8623 19.4674 25.016 19.4551 25.1711L19.4427 25.3306C19.4427 25.4016 19.4355 25.4756 19.4314 25.5437C19.419 25.8605 19.419 26.178 19.4314 26.4948C19.4365 26.621 19.4427 26.7485 19.453 26.8776C19.452 26.9054 19.4541 26.9333 19.4592 26.9602C19.4674 27.053 19.4777 27.1356 19.487 27.2197C19.4844 27.2369 19.4844 27.2547 19.487 27.2719V27.2821C19.487 27.2966 19.487 27.3111 19.4921 27.3256V27.3372C19.4921 27.3546 19.4921 27.372 19.4972 27.3879C19.5024 27.4039 19.5065 27.4619 19.5106 27.4995C19.5592 27.8671 19.6259 28.2295 19.7102 28.584C19.82 29.062 19.9634 29.5234 20.1382 29.9614C20.168 30.0353 20.1989 30.1063 20.2308 30.1846L20.2637 30.26H20.2267L19.953 30.2789H19.9654C20.0322 30.2789 20.0929 30.2789 20.1547 30.2789H20.3296L20.5292 30.2673L20.4263 30.0353C20.415 30.0092 20.4036 29.9846 20.3923 29.957C20.1935 29.4938 20.032 29.0007 19.9108 28.4869C19.8204 28.1086 19.7516 27.7207 19.7051 27.327C19.6907 27.1893 19.6752 27.0602 19.667 26.9211C19.6608 26.8471 19.6557 26.7761 19.6516 26.6978C19.6103 26.0492 19.6311 25.3958 19.7133 24.755C19.8579 23.5497 20.2093 22.4124 20.737 21.4421C20.81 21.3102 20.8872 21.1812 20.9654 21.0565C21.1595 20.7422 21.3718 20.4513 21.6002 20.1866C22.2878 19.4076 23.0995 18.8762 23.9654 18.6382H23.9881L24.1023 18.6106L24.236 18.5787C25.1116 18.4045 26.0042 18.5369 26.8348 18.9644C27.2334 19.1658 27.6134 19.434 27.9666 19.7632C29.1179 20.8398 29.929 22.5024 30.23 24.4027C30.2444 24.5317 30.267 24.6593 30.2824 24.7985C30.3258 25.1512 30.3513 25.5078 30.3586 25.8656C30.3666 26.4249 30.3321 26.9839 30.2557 27.5329C30.2541 27.5564 30.251 27.5797 30.2464 27.6025L30.2084 27.8794L30.3977 27.7939L30.4759 27.7562L30.7228 27.6344C30.9502 27.5271 31.1631 27.4097 31.3751 27.2922L31.4779 27.2386C32.1543 26.8624 32.7995 26.3831 33.4019 25.809C34.1601 25.5104 35.1138 25.4031 36.3258 25.4785L36.3176 25.4872C35.3021 26.5615 33.8052 27.5735 31.872 28.4985L31.5767 28.6435L31.8617 28.8015L31.8854 28.8145C32.4365 29.1292 32.9747 29.4869 33.4975 29.886L33.5428 29.9179H33.5737C36.1817 28.6812 38.1633 27.3372 39.4771 25.8873C40.7117 24.5303 41.3557 23.0703 41.3856 21.5378C41.3934 21.2683 41.3824 20.9983 41.3526 20.7317ZM19.4983 29.9469H19.4921V29.9643H19.5075L19.4983 29.9469ZM19.4304 30.2818H19.6711C19.5826 30.2818 19.4942 30.2818 19.4118 30.2687H19.3203C19.3166 30.2672 19.3127 30.2672 19.309 30.2687L19.4304 30.2818ZM16.8912 29.4467L16.9118 29.7453C16.9787 29.7337 17.0404 29.7337 17.1124 29.7236C17.2897 29.7045 17.4677 29.7006 17.6454 29.712C17.4057 29.6466 17.169 29.5614 16.9365 29.4568L16.9139 29.4467H16.8912ZM16.9344 29.4568L16.9118 29.4467H16.8912L16.9118 29.7453C16.9787 29.7337 17.0404 29.7337 17.1124 29.7236C17.2897 29.7045 17.4677 29.7006 17.6454 29.712C17.4051 29.644 17.168 29.5554 16.9355 29.4467L16.9344 29.4568ZM19.4952 29.9411H19.489V29.9585H19.5044L19.4952 29.9411ZM19.4952 29.944H19.489V29.9585H19.5044L19.4952 29.944ZM16.9355 29.4467L16.9128 29.4365H16.8912L16.9128 29.7352C16.9797 29.725 17.0414 29.725 17.1124 29.7149C17.2901 29.6953 17.4684 29.691 17.6464 29.7018C17.4058 29.638 17.1684 29.5528 16.9355 29.4467Z" fill="#002FA7"/>
<path d="M16.9385 29.4525L16.9159 29.4423H16.8943L16.9159 29.741C16.9828 29.7308 17.0445 29.7308 17.1155 29.7207C17.2931 29.7011 17.4715 29.6968 17.6495 29.7076C17.4089 29.6438 17.1715 29.5586 16.9385 29.4525ZM19.4983 29.9469H19.4921V29.9643H19.5075L19.4983 29.9469ZM41.3526 20.7317C41.2189 19.6096 40.7796 18.6715 40.0604 17.9133C39.0316 16.8346 37.3937 16.1401 35.2033 15.8414C32.6508 15.4891 29.7721 15.7472 27.8061 16.0227C26.0231 16.2793 24.5827 16.5881 23.8821 16.7606C23.1815 16.9332 21.772 17.2855 20.0065 17.8915C17.2194 18.8527 14.8552 19.9517 12.992 21.1696C11.0022 22.4599 9.62049 23.8692 8.89311 25.3436C8.37046 26.3991 8.17293 27.5184 8.30976 28.6304C8.3338 28.8242 8.36819 29.0152 8.41265 29.2017C8.42705 29.2654 8.44248 29.3263 8.45791 29.3901C8.4682 29.4293 8.47952 29.4684 8.49084 29.5061C8.89105 30.8791 9.83963 31.9288 11.3067 32.6247C12.8829 33.3757 15.0722 33.7237 17.7986 33.67H17.8439L17.8748 33.6178C18.2678 33.0379 18.6906 32.4246 19.1145 31.9085C19.1226 31.8976 19.1312 31.8874 19.1402 31.878L19.3748 31.5881H19.0137C16.991 31.6156 15.3603 31.3605 14.1679 30.8124H14.1566H14.171C15.2183 30.2194 16.0846 29.8903 16.884 29.7642H16.8892C17.5855 30.0455 18.3032 30.2081 19.0271 30.2484C18.5348 30.2105 18.045 30.1252 17.561 29.9933L17.3038 29.9135L17.2009 29.87C17.098 29.8323 17.0013 29.7932 16.9087 29.7511L16.8861 29.7439H16.8789C16.7389 29.6841 16.6015 29.6129 16.4673 29.5308C15.6875 29.7134 14.8294 30.0817 13.815 30.6906L13.5671 30.8356L13.5516 30.8458L13.8181 30.9907C15.0064 31.62 16.6834 31.9404 18.7873 31.9302C18.4314 32.3782 18.0908 32.8799 17.7647 33.3598C15.0825 33.4134 12.9467 33.0611 11.4014 32.3347C10.0063 31.678 9.11122 30.7008 8.72644 29.4235C8.71101 29.3771 8.69763 29.3307 8.68426 29.2785C8.67088 29.2263 8.65751 29.1741 8.64516 29.1205C8.60389 28.9417 8.57157 28.759 8.54845 28.5739C8.42705 27.5401 8.60915 26.5021 9.09373 25.5205C9.79539 24.091 11.1401 22.7238 13.0948 21.4537C14.921 20.2576 17.3377 19.134 20.0713 18.1974C21.8203 17.6001 23.2391 17.226 23.9284 17.0651C24.6177 16.9042 26.0488 16.5852 27.8379 16.3402C29.7927 16.0502 32.656 15.8168 35.1941 16.159C37.3454 16.4489 38.9359 17.1289 39.937 18.1655C40.6109 18.8701 41.0193 19.7458 41.1407 20.7752C41.1724 21.0229 41.1851 21.2747 41.1788 21.5262C41.1489 22.9572 40.5347 24.3331 39.3536 25.6365C38.0727 27.0457 36.1262 28.3796 33.5737 29.5757C33.1488 29.2669 32.694 28.9465 32.2362 28.6681C34.2198 27.6851 35.727 26.6123 36.7229 25.4857L36.9431 25.2291H36.8978L36.655 25.2103C35.2455 25.0827 34.193 25.19 33.3514 25.5307L33.3288 25.5423L33.3062 25.5626C32.7144 26.1312 32.0791 26.6039 31.4121 26.9718L31.3092 27.0255C31.1035 27.1429 30.8853 27.2603 30.6662 27.3662L30.5294 27.4314V27.3966C30.5376 27.3212 30.5458 27.2516 30.552 27.1719C30.5911 26.7441 30.6076 26.3128 30.6014 25.8815C30.6024 25.8133 30.6003 25.745 30.5952 25.6771C30.589 25.609 30.5901 25.5408 30.586 25.4712C30.5818 25.4016 30.5767 25.3262 30.5736 25.261C30.5705 25.1958 30.5623 25.116 30.5551 25.0522C30.5469 24.958 30.5366 24.8638 30.5252 24.7695C30.5139 24.6753 30.4975 24.5825 30.4851 24.4882C30.479 24.4419 30.4718 24.394 30.4646 24.3433C30.3515 23.6156 30.1644 22.9149 29.909 22.2628C29.8218 22.0415 29.7267 21.8266 29.624 21.619C29.5931 21.5552 29.5612 21.49 29.5273 21.4305C29.4933 21.3711 29.4717 21.3233 29.4419 21.2711C29.4121 21.2189 29.3802 21.158 29.3472 21.1029C28.9922 20.4897 28.574 19.9551 28.1065 19.5168C27.7386 19.1684 27.342 18.8846 26.9254 18.6715C26.06 18.2318 25.1315 18.0964 24.2206 18.2772C24.1311 18.29 24.0422 18.3094 23.9541 18.3352H23.9305C23.0278 18.5898 22.1827 19.1506 21.4685 19.9691C21.14 20.3387 20.8446 20.7633 20.5888 21.2334L20.5672 21.2711C20.3942 21.585 20.2377 21.9165 20.0991 22.2628C20.0724 22.3323 20.0466 22.4077 20.0209 22.473C19.9952 22.5382 19.9798 22.5861 19.9612 22.6441C19.9427 22.7021 19.9273 22.7368 19.9129 22.789C19.8378 23.0229 19.7712 23.2619 19.7133 23.5053C19.6968 23.5705 19.6814 23.6372 19.666 23.7024C19.6505 23.7677 19.6382 23.8329 19.6248 23.8996C19.6114 23.9663 19.6042 24.0011 19.595 24.0518C19.597 24.0613 19.597 24.0714 19.595 24.0808C19.5906 24.0973 19.5872 24.1143 19.5847 24.1316C19.5754 24.1765 19.5682 24.2258 19.561 24.2679V24.2983C19.5549 24.3346 19.5497 24.3694 19.5446 24.4056C19.5394 24.4419 19.5343 24.4708 19.5302 24.4998C19.5199 24.568 19.5116 24.6448 19.5024 24.7072C19.4839 24.8623 19.4674 25.016 19.4551 25.1711L19.4427 25.3306C19.4427 25.4016 19.4355 25.4756 19.4314 25.5437C19.419 25.8605 19.419 26.178 19.4314 26.4948C19.4365 26.621 19.4427 26.7485 19.453 26.8776C19.452 26.9054 19.4541 26.9333 19.4592 26.9602C19.4674 27.053 19.4777 27.1356 19.487 27.2197C19.4844 27.2369 19.4844 27.2547 19.487 27.2719V27.2821C19.487 27.2966 19.487 27.3111 19.4921 27.3256V27.3372C19.4921 27.3546 19.4921 27.372 19.4972 27.3879C19.5024 27.4039 19.5065 27.4619 19.5106 27.4995C19.5592 27.8671 19.6259 28.2295 19.7102 28.584C19.82 29.062 19.9634 29.5234 20.1382 29.9614C20.168 30.0353 20.1989 30.1063 20.2308 30.1846L20.2637 30.26H20.2267L19.953 30.2789H19.9654C20.0322 30.2789 20.0929 30.2789 20.1547 30.2789H20.3296L20.5292 30.2673L20.4263 30.0353C20.415 30.0092 20.4036 29.9846 20.3923 29.957C20.1935 29.4938 20.032 29.0007 19.9108 28.4869C19.8204 28.1086 19.7516 27.7207 19.7051 27.327C19.6907 27.1893 19.6752 27.0602 19.667 26.9211C19.6608 26.8471 19.6557 26.7761 19.6516 26.6978C19.6103 26.0492 19.6311 25.3958 19.7133 24.755C19.8579 23.5497 20.2093 22.4124 20.737 21.4421C20.81 21.3102 20.8872 21.1812 20.9654 21.0565C21.1595 20.7422 21.3718 20.4513 21.6002 20.1866C22.2878 19.4076 23.0995 18.8762 23.9654 18.6382H23.9881L24.1023 18.6106L24.236 18.5787C25.1116 18.4045 26.0042 18.5369 26.8348 18.9644C27.2334 19.1658 27.6134 19.434 27.9666 19.7632C29.1179 20.8398 29.929 22.5024 30.23 24.4027C30.2444 24.5317 30.267 24.6593 30.2824 24.7985C30.3258 25.1512 30.3513 25.5078 30.3586 25.8656C30.3666 26.4249 30.3321 26.9839 30.2557 27.5329C30.2541 27.5564 30.251 27.5797 30.2464 27.6025L30.2084 27.8794L30.3977 27.7939L30.4759 27.7562L30.7228 27.6344C30.9502 27.5271 31.1631 27.4097 31.3751 27.2922L31.4779 27.2386C32.1543 26.8624 32.7995 26.3831 33.4019 25.809C34.1601 25.5104 35.1138 25.4031 36.3258 25.4785L36.3176 25.4872C35.3021 26.5615 33.8052 27.5735 31.872 28.4985L31.5767 28.6435L31.8617 28.8015L31.8854 28.8145C32.4365 29.1292 32.9747 29.4869 33.4975 29.886L33.5428 29.9179H33.5737C36.1817 28.6812 38.1633 27.3372 39.4771 25.8873C40.7117 24.5303 41.3557 23.0703 41.3856 21.5378C41.3934 21.2683 41.3824 20.9983 41.3526 20.7317ZM19.4983 29.9469H19.4921V29.9643H19.5075L19.4983 29.9469ZM19.4304 30.2818H19.6711C19.5826 30.2818 19.4942 30.2818 19.4118 30.2687H19.3203C19.3166 30.2672 19.3127 30.2672 19.309 30.2687L19.4304 30.2818ZM16.8912 29.4467L16.9118 29.7453C16.9787 29.7337 17.0404 29.7337 17.1124 29.7236C17.2897 29.7045 17.4677 29.7006 17.6454 29.712C17.4057 29.6466 17.169 29.5614 16.9365 29.4568L16.9139 29.4467H16.8912ZM16.9344 29.4568L16.9118 29.4467H16.8912L16.9118 29.7453C16.9787 29.7337 17.0404 29.7337 17.1124 29.7236C17.2897 29.7045 17.4677 29.7006 17.6454 29.712C17.4051 29.644 17.168 29.5554 16.9355 29.4467L16.9344 29.4568ZM16.9355 29.4467L16.9128 29.4365H16.8912L16.9128 29.7352C16.9797 29.725 17.0414 29.725 17.1124 29.7149C17.2901 29.6953 17.4684 29.691 17.6464 29.7018C17.4058 29.638 17.1684 29.5528 16.9355 29.4467Z" fill="#002FA7"/>
<path d="M19.4324 29.9353L19.3933 29.944H19.3851C19.2462 29.944 19.1083 29.9295 18.9736 29.9179C18.8035 29.9034 18.6389 29.8845 18.4797 29.8613C18.2136 29.8256 17.9643 29.7772 17.7318 29.7164C17.4585 29.6478 17.1887 29.5538 16.9241 29.4351L16.9015 29.4235H16.8789C16.7328 29.4467 16.5857 29.4771 16.4344 29.5177C15.5414 29.7577 14.6699 30.1354 13.8356 30.6442C12.8068 30.0977 12.1627 29.3031 11.9117 28.2839C11.8973 28.2288 11.8849 28.1723 11.8736 28.1143C11.8623 28.0563 11.8551 28.0157 11.8479 27.9693C11.8407 27.9229 11.8314 27.8316 11.8253 27.7721C11.7224 26.9022 11.886 26.0323 12.3181 25.2103L12.3479 25.1566C12.9333 24.0649 13.994 23.0181 15.5105 22.0467C16.3298 21.5306 17.1689 21.0795 18.024 20.6955C18.9571 20.2605 19.9839 19.8633 21.0703 19.495C21.5539 19.3326 21.9963 19.1891 22.3975 19.0731L22.4562 19.0557C22.1054 19.3065 21.7752 19.6109 21.4716 19.9633C21.1383 20.3379 20.8394 20.7694 20.5816 21.2479L20.5672 21.2725C20.4942 21.4045 20.4252 21.5393 20.3615 21.6785C20.0886 22.2494 19.8709 22.8691 19.7143 23.5212C19.6979 23.5865 19.6824 23.6517 19.667 23.7184C19.6516 23.7851 19.6392 23.8489 19.6258 23.9156C19.6197 23.9446 19.6145 23.9736 19.6094 24.004C19.6042 24.0345 19.6012 24.0461 19.596 24.0678C19.5909 24.0895 19.596 24.0866 19.596 24.0968C19.5915 24.1132 19.588 24.1302 19.5857 24.1475C19.5765 24.191 19.5693 24.2403 19.5621 24.2838V24.3128C19.5559 24.3505 19.5507 24.3853 19.5456 24.4216C19.5405 24.4578 19.5353 24.4868 19.5312 24.5158C19.5271 24.5448 19.5312 24.5375 19.5312 24.5491C19.5219 24.6042 19.5158 24.6564 19.5086 24.7115C19.489 24.8696 19.4736 25.0276 19.4612 25.1871C19.4612 25.2393 19.453 25.2929 19.4499 25.3466L19.4376 25.5582C19.4252 25.8755 19.4252 26.1935 19.4376 26.5108C19.4437 26.6369 19.4499 26.763 19.4602 26.8906C19.4577 26.9151 19.4577 26.94 19.4602 26.9646C19.4684 27.0588 19.4787 27.1458 19.488 27.2328C19.4874 27.2424 19.4874 27.2521 19.488 27.2618C19.488 27.3067 19.4972 27.3488 19.5014 27.3923C19.5116 27.4865 19.524 27.5793 19.5384 27.6735C19.5366 27.683 19.5366 27.693 19.5384 27.7025L19.5631 27.8562C19.597 28.0621 19.6351 28.2535 19.6763 28.4361C19.6865 28.4854 19.6979 28.5304 19.7092 28.5811L19.7534 28.7566C19.7689 28.816 19.7843 28.874 19.8007 28.9334C19.8337 29.0494 19.8676 29.1669 19.9036 29.2814C19.9191 29.3307 19.9345 29.3742 19.951 29.4264C19.9674 29.4786 19.9839 29.5206 20.0014 29.5714C20.0466 29.7033 20.096 29.8323 20.1475 29.9585C20.1773 30.0324 20.2082 30.1035 20.2401 30.1817L20.273 30.2571H20.2359L19.9623 30.2745H19.9756C20.0415 30.2745 20.1022 30.2745 20.1649 30.2745H20.3543L20.5508 30.2629L20.4541 30.031L20.4201 29.9527C20.2166 29.4928 20.0506 29.0021 19.9252 28.4898C19.8364 28.1115 19.7696 27.7236 19.7256 27.3299C19.7102 27.1849 19.6948 27.0632 19.6876 26.924C19.6804 26.8428 19.6742 26.763 19.6701 26.6804C19.6321 26.0382 19.6546 25.3918 19.737 24.7579C19.8831 23.5528 20.2364 22.4165 20.7658 21.448C20.8224 21.3465 20.88 21.2464 20.9407 21.1493C21.7263 19.848 22.8029 18.9624 23.9932 18.6382L23.9572 18.3395C23.8482 18.3656 23.7165 18.399 23.5621 18.4395C22.9788 18.5845 22.0889 18.8383 21.0302 19.1906C18.81 19.9416 16.9313 20.8028 15.4313 21.764C13.9086 22.7456 12.8181 23.8025 12.2049 24.9232L12.174 24.9768C11.6823 25.8873 11.4919 26.8442 11.6133 27.8287C11.6216 27.8934 11.6308 27.9558 11.6411 28.0157C11.6524 28.0751 11.6627 28.136 11.674 28.1969C11.6853 28.2578 11.6936 28.2912 11.7039 28.3318C11.9498 29.3901 12.5701 30.2165 13.5465 30.8124L13.564 30.824C13.6436 30.8714 13.7259 30.9197 13.8109 30.969L13.8562 30.9893L13.8942 30.969L14.1607 30.8124L14.1751 30.8052C15.2163 30.2151 16.0784 29.8816 16.882 29.754H16.8922C16.989 29.7961 17.0888 29.8352 17.1916 29.8729C17.0888 29.8338 16.992 29.7946 16.8994 29.754L16.8768 29.7453H16.8665C16.7266 29.6855 16.5891 29.6144 16.455 29.5322C16.6011 29.4974 16.7451 29.4684 16.885 29.4467L16.9067 29.7453C16.9735 29.7352 17.0353 29.7352 17.1062 29.725C17.2839 29.706 17.4622 29.7021 17.6402 29.7135C17.9511 29.799 18.265 29.8614 18.5806 29.9005C18.7133 29.9193 18.847 29.9324 18.9921 29.9454C19.1372 29.9585 19.2658 29.9643 19.4036 29.9715H19.487V29.9875H19.5898C19.7123 29.9875 19.8357 29.9976 19.953 29.9976H20.1423C20.142 29.9943 20.142 29.9908 20.1423 29.9875H19.9417C19.8265 29.9875 19.7051 29.9788 19.5826 29.9773H19.4942L19.4324 29.9353ZM19.4386 30.2803H19.668C19.5795 30.2803 19.4911 30.2803 19.4088 30.2673H19.3223L19.4386 30.2803ZM19.9314 29.9585C19.8151 29.9585 19.6937 29.9585 19.5713 29.9498H19.4849V29.9585H19.5878C19.7112 29.9585 19.8337 29.9686 19.951 29.9686H20.1413C20.1408 29.9653 20.1408 29.9618 20.1413 29.9585H19.9314Z" fill="#002FA7"/>
<path d="M30.2269 27.8838L30.265 27.5938C30.3484 27.0216 30.3863 26.438 30.3781 25.854C30.3718 25.4975 30.3463 25.1423 30.302 24.7913C30.2876 24.6535 30.265 24.5245 30.2495 24.3969C29.9485 22.4966 29.1374 20.834 27.9861 19.7574C27.633 19.4277 27.253 19.159 26.8544 18.9571C26.0236 18.5308 25.1311 18.3989 24.2556 18.5729L24.2175 18.2641C24.7319 18.1467 25.8081 17.9118 27.1723 17.7306C28.7094 17.516 30.9676 17.3246 32.9975 17.5856H33.013C34.7095 17.8002 35.9966 18.3018 36.8536 19.0804L36.8916 19.1123C37.5666 19.7429 37.9678 20.5433 38.081 21.5146C38.098 21.6556 38.108 21.798 38.1108 21.9409C38.1417 23.1689 37.6725 24.365 36.7116 25.4756L36.6735 25.5176H36.6283C35.2805 25.4002 34.229 25.4959 33.4091 25.8279C32.8065 26.4018 32.1614 26.8817 31.4851 27.2589L31.3823 27.3111C31.1693 27.4285 30.9574 27.5459 30.73 27.6532C30.6271 27.7069 30.518 27.7591 30.4038 27.8127L30.2269 27.8838ZM25.7926 18.254C26.1784 18.3313 26.5576 18.4639 26.9244 18.6498C27.3413 18.8616 27.7381 19.1456 28.1054 19.495C28.8537 20.1973 29.4718 21.1419 29.908 22.2497C30.1652 22.9012 30.3538 23.6021 30.4676 24.3302C30.4903 24.4679 30.5047 24.6115 30.5273 24.7463C30.5717 25.1134 30.5971 25.4846 30.6034 25.8569C30.6126 26.3748 30.5871 26.8927 30.5273 27.4039L30.6641 27.3401C30.8843 27.2328 31.1035 27.1168 31.3082 26.9994L31.4111 26.9457C32.0779 26.5775 32.7133 26.1048 33.3051 25.5365L33.3278 25.5147L33.3504 25.5031C34.1838 25.1624 35.2219 25.0682 36.6077 25.1827C37.4873 24.1504 37.9184 23.0587 37.8886 21.9481C37.8855 21.8158 37.8752 21.6839 37.8577 21.5538C37.7548 20.6839 37.3958 19.959 36.797 19.379L36.7672 19.3471C35.9441 18.5889 34.6838 18.0988 33.0099 17.8741H32.9944C30.98 17.6189 28.7289 17.8103 27.1918 18.0191C26.6815 18.1046 26.2114 18.18 25.7926 18.254Z" fill="#002FA7"/>
<path d="M19.5075 29.9556L19.5075 29.9643L19.5291 29.9643L19.5075 29.9556ZM20.1392 29.9657H19.9386C19.8234 29.9657 19.702 29.9657 19.5795 29.9556L19.5909 29.9672C19.7133 29.9672 19.8368 29.9759 19.954 29.9759H20.1433C20.1428 29.972 20.1428 29.9681 20.1433 29.9643L20.1392 29.9657ZM19.4479 29.9425L19.3995 29.9541C19.2596 29.9541 19.1248 29.9396 18.988 29.9266C18.8357 29.9164 18.6876 29.9005 18.5445 29.8787C18.2549 29.8428 17.9668 29.7857 17.6814 29.7076C17.4265 29.642 17.1749 29.5529 16.9283 29.4409L16.9056 29.4307H16.883C16.0928 29.061 15.5568 28.497 15.2862 27.7504C15.2616 27.6793 15.2369 27.6054 15.2163 27.5314C15.206 27.4937 15.1947 27.4546 15.1854 27.4155C15.1523 27.2829 15.1272 27.1466 15.1103 27.0081C15.0434 26.4948 15.1628 25.9743 15.4663 25.4379C15.7276 24.9979 16.0326 24.6131 16.3717 24.2954C16.8234 23.857 17.2984 23.4683 17.7925 23.1327C18.6201 22.5751 19.4715 22.0909 20.3419 21.6828L20.3584 21.6741C20.2647 21.8698 20.1783 22.0699 20.0981 22.2773C20.0713 22.3454 20.0456 22.4222 20.0199 22.4875C19.9942 22.5527 19.9787 22.5991 19.9602 22.6571C19.9417 22.7151 19.9263 22.7513 19.9119 22.8021C19.8368 23.0354 19.7701 23.274 19.7123 23.5169C19.6958 23.5836 19.6804 23.6488 19.6649 23.714C19.6495 23.7793 19.6372 23.8445 19.6238 23.9112C19.6104 23.9779 19.6032 24.0127 19.5939 24.0634C19.5964 24.0728 19.5964 24.0831 19.5939 24.0924C19.5899 24.109 19.5868 24.1259 19.5847 24.1432C19.5754 24.1881 19.5682 24.2374 19.561 24.2795V24.3099C19.5549 24.3462 19.5497 24.381 19.5446 24.4187C19.5394 24.4564 19.5302 24.5056 19.524 24.5491C19.5178 24.5926 19.5096 24.6579 19.5024 24.7115C19.4828 24.8696 19.4674 25.029 19.454 25.1871C19.454 25.2393 19.4468 25.2929 19.4427 25.3465C19.4386 25.4002 19.4355 25.4915 19.4314 25.5597C19.418 25.8764 19.418 26.194 19.4314 26.5108C19.4376 26.6369 19.4437 26.7645 19.454 26.8906C19.4531 26.9155 19.4549 26.9404 19.4592 26.9646C19.4674 27.0588 19.4777 27.1458 19.487 27.2342C19.4866 27.2439 19.4866 27.2536 19.487 27.2632C19.487 27.3067 19.4962 27.3488 19.5003 27.3923C19.5106 27.4865 19.523 27.5807 19.5374 27.6735C19.5354 27.683 19.5354 27.6931 19.5374 27.7025L19.5621 27.8577C19.596 28.0621 19.6341 28.2535 19.6752 28.4376C19.6855 28.4869 19.6968 28.5318 19.7081 28.5826L19.7524 28.758C19.7678 28.8174 19.7833 28.8754 19.7997 28.9349C19.8326 29.0523 19.8666 29.1683 19.9026 29.2828C19.918 29.3321 19.9335 29.3771 19.9499 29.4278C19.9664 29.4786 19.9828 29.5221 20.0003 29.5728C20.0456 29.7047 20.095 29.8352 20.1464 29.9599C20.1763 30.0353 20.2071 30.1049 20.239 30.1832L20.2719 30.2586H20.2349L19.9612 30.2774H19.9746C20.0405 30.2774 20.1012 30.2774 20.1629 30.2774H20.3645L20.561 30.2658L20.4715 30.0455C20.4576 30.015 20.4449 29.9836 20.4335 29.9512C20.0911 29.1477 19.8584 28.2612 19.7472 27.3372C19.7318 27.1922 19.7164 27.0704 19.7092 26.9312C19.6481 26.2071 19.6633 25.4743 19.7544 24.7565C19.9014 23.5517 20.2546 22.4156 20.7833 21.4465L20.951 21.1377L21.0034 21.0449L20.9818 21.0536L20.6547 21.1986L20.6012 21.2232H20.5929C20.5896 21.2226 20.5862 21.2231 20.583 21.2246C20.5798 21.2261 20.5769 21.2286 20.5744 21.2319C20.0415 21.4823 19.5408 21.7369 19.0723 21.996C18.584 22.2705 18.1347 22.5527 17.7246 22.8427C16.5723 23.6212 15.7544 24.423 15.3079 25.2233C14.9663 25.825 14.8294 26.4441 14.9118 27.0472C14.9294 27.1668 14.9518 27.2848 14.9786 27.401C14.9951 27.4792 15.0146 27.5575 15.0362 27.6344C15.0455 27.6663 15.0558 27.6982 15.065 27.7286C15.3037 28.4883 15.7688 29.0828 16.456 29.5047H16.4673L16.4838 29.5148C16.6309 29.48 16.7739 29.451 16.9149 29.4293L16.9365 29.7279C17.0023 29.7178 17.0651 29.7178 17.1361 29.7076C17.3133 29.6873 17.4914 29.683 17.669 29.6946C17.9799 29.7806 18.2938 29.8435 18.6094 29.8831C18.7431 29.9005 18.8758 29.915 19.0209 29.9266C19.166 29.9382 19.2946 29.9469 19.4324 29.9527H19.5147L19.4479 29.9425ZM20.167 29.9817C20.1649 29.9781 20.1632 29.9742 20.1619 29.9701H19.953C19.8368 29.9701 19.7154 29.9701 19.5929 29.9614L19.6042 29.9715C19.7277 29.9715 19.8501 29.9817 19.9674 29.9817H20.167ZM19.5302 29.9672L19.5518 29.9599H19.5302V29.9672ZM19.4633 30.2818H19.6927C19.6042 30.2818 19.5147 30.2818 19.4324 30.2687H19.3295L19.4633 30.2818ZM20.1403 29.9788H19.9396C19.8244 29.9788 19.703 29.9715 19.5806 29.9701H19.4931V29.9788H19.596C19.7184 29.9788 19.8419 29.9889 19.9592 29.9889H20.1485C20.1441 29.9818 20.141 29.9734 20.1392 29.9643L20.1403 29.9788Z" fill="#002FA7"/>
<path d="M30.2269 27.8838L30.265 27.5938C30.3484 27.0216 30.3863 26.438 30.3781 25.854C30.3718 25.4975 30.3463 25.1423 30.302 24.7913C30.2876 24.6535 30.265 24.5245 30.2495 24.3969C29.9485 22.4966 29.1374 20.834 27.9861 19.7574L27.6826 19.4675L28.0468 19.4573C29.0774 19.4322 30.1081 19.4951 31.1333 19.6458C32.407 19.8589 33.3607 20.2257 33.9832 20.7549C34.4677 21.1609 34.7476 21.6727 34.8155 22.2715C34.8379 22.4762 34.8455 22.6836 34.8381 22.8905C34.8 23.9228 34.3309 24.8971 33.444 25.7902L33.4214 25.8105C32.8214 26.3813 32.1786 26.8573 31.5047 27.2299L31.4018 27.2835C31.1899 27.401 30.9779 27.5184 30.7506 27.6257C30.6477 27.6793 30.5386 27.733 30.4244 27.7852L30.2269 27.8838ZM28.3894 19.7806C29.0105 20.4446 29.5263 21.2841 29.9038 22.2454C30.162 22.8978 30.3515 23.5996 30.4666 24.3288C30.4892 24.4665 30.5036 24.61 30.5263 24.7449C30.5707 25.112 30.5961 25.4831 30.6024 25.8554C30.6116 26.3733 30.5861 26.8913 30.5263 27.4024L30.6631 27.3386C30.8833 27.2313 31.1024 27.1153 31.3072 26.9979L31.41 26.9443C32.0769 26.5761 32.7123 26.1034 33.3041 25.535L33.3268 25.5133C34.1375 24.6912 34.5696 23.8054 34.5994 22.8833C34.6068 22.7014 34.5992 22.519 34.5768 22.3396C34.5171 21.8409 34.2733 21.4161 33.8515 21.0492C33.2599 20.5476 32.336 20.1953 31.0932 19.9822C30.1952 19.8449 29.2926 19.7776 28.3894 19.7806Z" fill="#002FA7"/>
<path d="M20.1392 29.9643L19.9386 29.9643C19.8234 29.9643 19.702 29.957 19.5795 29.9556L19.5909 29.9657C19.7133 29.9657 19.8368 29.9744 19.954 29.9744H20.1433C20.1414 29.9716 20.14 29.9681 20.1392 29.9643ZM20.5436 30.2542L20.454 30.0339C20.4395 30.004 20.4268 29.9724 20.416 29.9396C20.2187 29.4801 20.0586 28.9909 19.9386 28.4811C19.8477 28.103 19.7789 27.7151 19.7328 27.3212C19.7184 27.1762 19.703 27.0544 19.6958 26.9167L19.6732 26.6601L19.6516 26.6789L19.523 26.7964L19.4427 26.8718C19.2484 27.0556 19.0666 27.2643 18.8995 27.4952C18.6176 27.8925 18.4808 28.2897 18.488 28.6681V28.7232C18.49 28.8136 18.5004 28.9033 18.5188 28.99C18.524 29.019 18.5312 29.048 18.5373 29.077C18.5855 29.2699 18.6599 29.4477 18.7565 29.6004C18.8235 29.7077 18.8984 29.8049 18.9797 29.8903L18.99 29.9005C18.993 29.9039 18.9958 29.9078 18.9983 29.9121C19.132 29.9237 19.2699 29.9324 19.4098 29.9382H19.4149L19.3717 29.9077L19.3419 29.8758H19.3357L19.2688 29.8207C19.1088 29.6961 18.9687 29.5264 18.8573 29.322C18.7947 29.2032 18.7492 29.0682 18.7236 28.9247C18.7236 28.8972 18.7164 28.8667 18.7143 28.8305C18.7122 28.7943 18.705 28.7479 18.7009 28.7073C18.6783 28.4086 18.8038 28.0766 19.0415 27.7243C19.1753 27.5344 19.3206 27.3612 19.4756 27.2067C19.4756 27.2255 19.4756 27.2444 19.4756 27.2632V27.2734C19.4756 27.2879 19.4756 27.3024 19.4808 27.3169C19.4802 27.3184 19.4799 27.3202 19.4799 27.3219C19.4799 27.3237 19.4802 27.3254 19.4808 27.327C19.482 27.3407 19.4837 27.3542 19.4859 27.3676C19.4962 27.4643 19.5086 27.5609 19.523 27.6576C19.5211 27.6666 19.5211 27.6761 19.523 27.6851L19.5477 27.8403C19.5816 28.0447 19.6197 28.2361 19.6608 28.4202C19.6711 28.4709 19.6824 28.5144 19.6937 28.5652L19.738 28.7406C19.7534 28.7986 19.7688 28.858 19.7853 28.916C19.8182 29.0335 19.8522 29.1495 19.8882 29.264C19.9036 29.3133 19.9191 29.3582 19.9355 29.409C19.952 29.4597 19.9684 29.5032 19.9859 29.554C20.0312 29.6844 20.0806 29.8149 20.132 29.9411C20.1619 30.015 20.1927 30.0861 20.2246 30.1629L20.2575 30.2397H20.2205L19.9468 30.2571H19.9602C20.0261 30.2571 20.0868 30.2571 20.1495 30.2571H20.3388L20.5353 30.2455L20.5436 30.2542ZM20.1433 29.973C20.143 29.9696 20.143 29.9662 20.1433 29.9628H19.9427C19.8275 29.9628 19.7061 29.9556 19.5837 29.9527L19.595 29.9628C19.7174 29.9628 19.8409 29.973 19.9582 29.973H20.1433ZM20.1433 29.9628H19.9427C19.8275 29.9628 19.7061 29.9556 19.5837 29.9527H19.5106H19.5939C19.7174 29.9527 19.8398 29.9614 19.9571 29.9614H20.1475C20.1469 29.958 20.1469 29.9546 20.1475 29.9512L20.1433 29.9628Z" fill="#002FA7"/>
<path d="M30.2269 27.8838L30.265 27.5938C30.3484 27.0216 30.3863 26.438 30.3781 25.854C30.3718 25.4975 30.3463 25.1423 30.302 24.7913C30.2876 24.6535 30.265 24.5245 30.2495 24.3969L30.2115 24.1475L30.3936 24.2113C30.6383 24.2912 30.8768 24.4053 31.1055 24.552C31.517 24.8188 31.7567 25.161 31.8257 25.5553C31.8329 25.609 31.8401 25.6626 31.8483 25.7264C31.9008 26.2498 31.765 26.7601 31.4316 27.2531L31.4162 27.2748L31.3936 27.285C31.1816 27.4024 30.9697 27.5198 30.7423 27.6271C30.6394 27.6793 30.5294 27.733 30.4162 27.7866L30.2269 27.8838ZM30.5067 24.5825L30.5294 24.742C30.5738 25.1091 30.5992 25.4802 30.6055 25.8525C30.6146 26.3709 30.5892 26.8893 30.5294 27.401L30.6662 27.3372C30.8781 27.2299 31.0829 27.1226 31.2835 27.0052C31.5499 26.5891 31.6621 26.1729 31.624 25.767C31.6168 25.7235 31.6168 25.6815 31.6096 25.622C31.5561 25.3234 31.3524 25.0595 31.0098 24.8333C30.847 24.7314 30.6788 24.6475 30.5067 24.5825Z" fill="#002FA7"/>
<path d="M34.9472 30.8733C34.6056 30.6703 34.1961 30.3717 33.765 30.0614L33.515 29.8802L33.6179 29.5989L33.8679 29.7801C34.299 30.089 34.7013 30.3891 35.0346 30.5805L34.9472 30.8733Z" fill="#002FA7"/>
<path d="M31.5242 27.211L31.3802 26.966C31.9407 26.3225 32.5837 25.8367 33.2743 25.535C33.2969 25.5263 33.3185 25.5147 33.3412 25.5031L33.3936 25.8119C33.3792 25.8235 33.3556 25.8235 33.3412 25.8337C32.679 26.1261 32.0623 26.5936 31.5242 27.211Z" fill="#002FA7"/>
<path d="M41.6819 26.2396C41.0152 26.186 40.2569 26.0584 39.4184 25.8975L39.3516 25.8873C38.4657 25.7424 37.548 25.5771 36.6478 25.493L36.6591 25.1755C37.5696 25.2494 38.4853 25.4103 39.3793 25.5698L39.4462 25.58C40.2868 25.725 41.0368 25.8699 41.7035 25.9105L41.6819 26.2396Z" fill="#002FA7"/>
<path d="M30.7876 27.5851L30.6055 27.3966C30.9923 26.692 31.3257 26.1382 31.6436 25.6467C32.6127 24.162 33.5675 23.2443 34.6509 22.747L34.6735 22.7354C35.7534 22.2705 36.8618 21.9487 37.9843 21.7742C39.083 21.5871 40.2034 21.4653 41.2765 21.3581L41.3907 21.3479C42.4885 21.2363 43.5173 21.129 44.5039 20.9478L44.5338 21.2682C43.542 21.4494 42.5039 21.5581 41.4061 21.664L41.2919 21.6741C40.2158 21.7814 39.1026 21.8988 37.9997 22.0902C36.7116 22.3149 35.6334 22.6238 34.727 23.0399L34.7044 23.05C33.6663 23.5198 32.7424 24.4172 31.7959 25.8583C31.4995 26.3353 31.1744 26.8906 30.7876 27.5851Z" fill="#002FA7"/>
<path d="M30.5829 25.9511L30.3915 25.78C30.5973 25.332 30.7783 24.9478 30.9522 24.6071C31.8617 22.8224 32.763 21.6176 33.8082 20.8057L33.8237 20.7955C33.8374 20.7869 33.8502 20.7757 33.8617 20.7622C34.657 20.1431 35.619 19.6023 36.7857 19.0717H36.7929C37.7857 18.6367 38.7775 18.2815 39.9668 17.8669L40.0337 17.8451C41.0121 17.503 41.935 17.1869 42.8115 16.8114L42.8784 17.11C41.9998 17.4856 41.0677 17.8147 40.0903 18.1568L40.0234 18.1786C38.8372 18.6005 37.8454 18.9484 36.8536 19.3863H36.8464C35.848 19.8075 34.8811 20.3649 33.9595 21.0507C33.944 21.0623 33.9368 21.0724 33.9286 21.0724L33.9142 21.0826C32.906 21.8742 32.0201 23.0471 31.1364 24.7985C30.9697 25.1291 30.7876 25.5133 30.5829 25.9511Z" fill="#002FA7"/>
<path d="M29.909 22.3961L29.7114 22.2367C30.0465 21.3865 30.4508 20.5944 30.9162 19.8763C30.9543 19.8227 30.9923 19.7589 31.0304 19.7067C31.606 18.8993 32.2465 18.1894 32.9389 17.5914L32.9615 17.5711C33.6508 16.952 34.3936 16.3967 35.1509 15.8313L35.2651 15.7458C35.8824 15.2862 36.4647 14.8585 36.9976 14.4206L37.1118 14.7106C36.5655 15.1586 35.9801 15.5805 35.369 16.0444L35.2558 16.13C34.4893 16.6939 33.7475 17.2507 33.0562 17.8698L33.0335 17.8901C32.3603 18.465 31.7386 19.1518 31.1816 19.9358L31.0643 20.088C30.6259 20.8015 30.2389 21.5747 29.909 22.3961Z" fill="#002FA7"/>
<path d="M26.9923 18.8629L26.7803 18.7455C26.8637 18.4555 26.9624 18.1655 27.0838 17.806C27.2896 17.2188 27.5149 16.6316 27.7279 16.0879L27.803 15.9052C27.9933 15.4152 28.197 14.9121 28.3719 14.4206L28.5777 14.5656C28.4028 15.0556 28.198 15.5689 28.0087 16.0604L27.9336 16.2416C27.7217 16.7867 27.4943 17.3623 27.2896 17.9495C27.1661 18.2975 27.0684 18.586 26.9923 18.8629Z" fill="#002FA7"/>
<path d="M21.4613 20.1866C21.31 19.9401 21.1434 19.7067 20.9613 19.4501C20.6526 19.0151 20.3244 18.6048 19.9612 18.1452L19.8584 18.0263C19.5405 17.6218 19.2411 17.2478 18.9499 16.8534L19.1104 16.6258C19.3902 17.01 19.6937 17.3942 20.0117 17.7857L20.1145 17.9031C20.4777 18.3627 20.8039 18.7803 21.1228 19.2181C21.3039 19.4733 21.4705 19.7198 21.629 19.9691L21.4613 20.1866Z" fill="#002FA7"/>
<path d="M33.408 25.8018C32.8055 26.3757 32.1604 26.8556 31.4841 27.2328L31.3812 27.2864C31.1693 27.4039 30.9563 27.5213 30.729 27.6286L30.482 27.7504L30.4039 27.7881L30.2145 27.8736L30.2526 27.5967C30.2526 27.572 30.2598 27.5503 30.2619 27.5271C30.0283 27.6358 29.7752 27.7446 29.5026 27.8635C29.018 28.065 28.4943 28.2578 27.9192 28.4434C27.3441 28.629 26.7433 28.8247 26.126 28.9827C25.8451 29.0581 25.5961 29.1277 25.376 29.1712C25.1558 29.2147 24.9058 29.2785 24.6177 29.3423C23.9665 29.4873 23.3831 29.6091 22.8306 29.6946C22.2391 29.7874 21.6794 29.8657 21.1485 29.9077C20.9067 29.9266 20.6588 29.9367 20.4211 29.9454H20.3954C20.4057 29.973 20.417 29.9991 20.4283 30.0237L20.5312 30.2557H20.5466C20.6876 30.2557 20.8285 30.2412 20.9674 30.2325L21.1732 30.2165C21.7072 30.173 22.272 30.0991 22.8615 30.0034C23.415 29.9179 23.9984 29.8004 24.6568 29.6497C24.7792 29.6279 24.8955 29.6033 25.0066 29.5772L25.198 29.5322L25.413 29.48C25.6332 29.4264 25.8904 29.3626 26.1702 29.2872C26.7988 29.1263 27.4048 28.945 27.981 28.7537C28.2382 28.6696 28.483 28.5826 28.7197 28.4941H28.732C29.0273 28.3839 29.3082 28.2709 29.5798 28.1592C29.875 28.0418 30.1477 27.9142 30.4028 27.7968L30.4697 27.7634C30.5582 27.7214 30.6436 27.6793 30.729 27.6358C30.9553 27.53 31.1672 27.4126 31.3792 27.2951L31.4821 27.2415C32.1586 26.8652 32.8038 26.3854 33.406 25.8105C34.1601 25.5205 35.1087 25.406 36.3134 25.4785L36.3227 25.4698C35.1231 25.3958 34.1663 25.5031 33.408 25.8018ZM19.4479 29.9469L19.3995 29.9585C19.2596 29.9585 19.1248 29.944 18.988 29.9309C18.8357 29.9208 18.6876 29.9048 18.5445 29.8831C18.2549 29.8472 17.9668 29.7901 17.6814 29.712C17.4265 29.6464 17.1749 29.5572 16.9283 29.4452L16.9056 29.4351H16.883C16.741 29.4583 16.597 29.4858 16.4499 29.5206C15.5378 29.761 14.6488 30.1502 13.8006 30.6805L13.5516 30.8255L13.5352 30.8371L13.5527 30.8458L13.7965 30.9763C15.0476 31.6345 16.8192 31.9578 19.0692 31.9157H19.1114C19.7668 31.9041 20.4726 31.8621 21.1989 31.7882L21.3275 31.778C21.3728 31.7679 21.4304 31.7679 21.4788 31.7563L21.5395 31.7461C21.8419 31.7142 22.1393 31.6823 22.4253 31.6388C22.6002 31.6185 22.7669 31.5866 22.9253 31.5649L23.2514 31.5112C23.3955 31.4895 23.5395 31.4576 23.6753 31.4358L23.7134 31.4257C24.1681 31.3503 24.6074 31.2648 25.0313 31.1691C25.2587 31.127 25.449 31.0835 25.6075 31.0415C25.7659 30.9994 25.9634 30.956 26.1527 30.8965C26.5992 30.7791 27.0396 30.65 27.4789 30.5109C27.6301 30.4688 27.7814 30.4268 27.9408 30.3659L28.2495 30.2586C28.3935 30.2049 28.5376 30.1658 28.6898 30.1136C28.9625 30.0281 29.2433 29.9222 29.5304 29.8149L29.7053 29.7511C29.7711 29.7294 29.8339 29.6975 29.9018 29.6772L29.9244 29.6656C30.6106 29.3916 31.2753 29.1089 31.8957 28.8146L31.9245 28.8015H31.9317C34.0562 27.7866 35.656 26.6644 36.6951 25.4669L36.9009 25.2291L36.9153 25.2103L36.6272 25.19C35.2188 25.0609 34.1663 25.1682 33.3247 25.5104L33.3021 25.5205L33.2794 25.5423C32.6878 26.1107 32.0524 26.583 31.3854 26.9501L31.2825 27.0037C31.0767 27.1211 30.8586 27.2386 30.6384 27.3459L30.5355 27.3966L30.3226 27.5025L30.2639 27.5329C30.0304 27.6416 29.7773 27.7504 29.5047 27.8693C29.0201 28.0722 28.4964 28.2636 27.9213 28.4564C27.3462 28.6493 26.7433 28.8218 26.126 28.9798C25.8451 29.0552 25.5961 29.1248 25.376 29.1669C25.1558 29.2089 24.9058 29.2741 24.6177 29.3379C23.9665 29.4829 23.3831 29.6047 22.8306 29.6902C22.2391 29.7845 21.6794 29.8613 21.1485 29.9034C20.9067 29.9237 20.6588 29.9338 20.4211 29.9425H20.3285C20.2668 29.9425 20.2071 29.9425 20.1464 29.9512H19.9407C19.8244 29.9512 19.703 29.9512 19.5806 29.9425H19.4931V29.9643H19.596C19.7195 29.9643 19.8419 29.9744 19.9592 29.9744H20.1495L20.1444 29.9643H20.1495C20.1783 30.0382 20.2102 30.1093 20.2411 30.1861L20.275 30.2629H20.5518C20.6927 30.2629 20.8337 30.2484 20.9716 30.2383L21.1773 30.2223C21.7103 30.1803 22.2761 30.1049 22.8656 30.0092C23.4181 29.9237 23.9973 29.8062 24.6609 29.6569C24.7823 29.6352 24.8996 29.6091 25.0097 29.5844L25.2011 29.5395L25.2679 29.5221L25.4171 29.4873C25.6363 29.4336 25.8935 29.3698 26.1743 29.2944C26.803 29.1335 27.4089 28.9523 27.9851 28.7609C28.2413 28.6754 28.4871 28.5898 28.7227 28.4999H28.7351C29.0304 28.3912 29.3112 28.2781 29.5828 28.1665C29.8781 28.049 30.1518 27.9215 30.4059 27.804C30.4285 27.7924 30.4512 27.7823 30.4728 27.7692C30.5613 27.7286 30.6467 27.6866 30.731 27.6431C30.9584 27.5358 31.1703 27.4184 31.3823 27.3009L31.4852 27.2473C32.1613 26.8703 32.8063 26.3909 33.4091 25.8177C34.1622 25.5191 35.1118 25.4118 36.3165 25.4857H36.333C35.3227 26.5644 33.8309 27.5662 31.8874 28.497L31.587 28.642C31.0469 28.8914 30.481 29.1306 29.8946 29.3568L29.872 29.3669C29.8051 29.3887 29.7433 29.4206 29.6713 29.4423L29.4594 29.5163C29.1867 29.6236 28.9141 29.7192 28.6569 29.8062C28.5057 29.8599 28.3616 29.899 28.2176 29.9512L27.9089 30.0571C27.7495 30.1006 27.6003 30.1513 27.447 30.202C27.0077 30.3296 26.5684 30.4587 26.1291 30.5775C25.9161 30.6312 25.7289 30.6718 25.5601 30.7225C25.3914 30.7733 25.2114 30.8081 24.9922 30.8501C24.5755 30.9357 24.1259 31.0313 23.6815 31.1067L23.6434 31.1169C23.5107 31.1488 23.3636 31.1705 23.2195 31.1923L22.8934 31.2445C22.735 31.2764 22.5683 31.2981 22.4016 31.3199C22.1136 31.3518 21.8183 31.3953 21.522 31.4271L21.4695 31.4373C21.416 31.4474 21.3666 31.4474 21.3183 31.459L21.1886 31.4692C20.5322 31.5359 19.8975 31.5765 19.2987 31.5924H19.0147C16.9962 31.62 15.3686 31.3663 14.1792 30.8211H14.1679C15.2132 30.2281 16.0723 29.8961 16.8871 29.7671H16.8665C16.7266 29.7073 16.5891 29.6361 16.455 29.554C16.6011 29.5192 16.7451 29.4902 16.885 29.4684L16.9067 29.7671C16.9735 29.7569 17.0353 29.7569 17.1124 29.7468C17.2897 29.7277 17.4677 29.7238 17.6454 29.7352C17.9563 29.8207 18.2701 29.8832 18.5857 29.9222C18.7184 29.9411 18.8522 29.9541 18.9972 29.9672C19.1423 29.9802 19.2699 29.986 19.4088 29.9933H19.4921" fill="#002FA7"/>
<path d="M19.5415 24.8522C19.0359 24.2338 18.4819 23.6988 17.8902 23.2573L17.704 23.1327C16.9804 22.6581 16.2211 22.3002 15.4406 22.0656C14.6679 21.809 13.8572 21.6306 13.0311 21.4566L12.8983 21.4248C12.208 21.2798 11.5609 21.1348 10.9281 20.9652L10.9734 20.6563C11.6 20.8202 12.2522 20.9579 12.9343 21.1029L13.0671 21.1348C13.9004 21.3175 14.7132 21.4871 15.492 21.7437C16.2891 21.9864 17.0643 22.355 17.8028 22.8427L17.9838 22.9703C18.594 23.4214 19.1639 23.9733 19.6814 24.6144L19.5415 24.8522Z" fill="#002FA7"/>
<path d="M19.7472 28.6493C19.4448 28.3187 19.1649 28.02 18.8923 27.7533C17.6577 26.5325 16.5589 25.809 15.4293 25.4901L15.3542 25.4683C14.4868 25.2335 13.4827 25.1479 12.2677 25.2117H12.2574C11.1586 25.2654 10.0145 25.4263 9.00731 25.564H8.98467C7.93938 25.709 6.9548 25.854 6.03811 25.9062L6.02988 25.5858C6.93936 25.5321 7.92395 25.3973 8.96204 25.2436H8.98467C9.99293 25.0986 11.137 24.9449 12.243 24.8928H12.2512C13.4858 24.8275 14.5146 24.9131 15.3943 25.1595L15.4704 25.1798C16.6289 25.5104 17.7585 26.2469 19.0158 27.4995C19.2884 27.7808 19.5765 28.0635 19.882 28.4071L19.7472 28.6493Z" fill="#002FA7"/>
<path d="M20.0219 29.9759H19.953C19.8357 29.9759 19.7123 29.9759 19.5888 29.9672L19.5775 29.9556C19.3172 29.7236 19.0806 29.5206 18.8573 29.3481C18.7544 29.2698 18.6515 29.193 18.562 29.1219L18.5353 29.1031C17.3655 28.2332 16.3315 27.7982 15.2832 27.7417C15.2358 27.7417 15.1864 27.7417 15.1371 27.7417H15.0424C14.1484 27.7417 13.1247 27.9244 11.9096 28.2854L11.7954 28.3187L11.7039 28.3463C10.675 28.6551 9.64621 29.0596 8.72026 29.422L8.59578 29.4699L8.48466 29.5105C7.40851 29.9454 6.39306 30.334 5.44653 30.6109L5.39715 30.3021C6.3303 30.0252 7.34266 29.6337 8.40544 29.2089H8.42088L8.53405 29.1654L8.63693 29.1248C9.56287 28.7624 10.6092 28.3593 11.637 28.0345L11.8428 27.9707C13.0465 27.6083 14.0661 27.4242 14.9539 27.4155H15.1782C16.2554 27.4488 17.311 27.8577 18.4808 28.7044L18.6567 28.8348L18.7071 28.8725C19.0909 29.1625 19.5116 29.5206 20.0075 29.9759H20.0219Z" fill="#002FA7"/>
<path d="M19.4695 29.9469H19.4088C19.2678 29.9469 19.13 29.9324 18.9972 29.9208C18.8645 29.9092 18.7225 29.8947 18.5857 29.8758L18.5404 29.8613L18.4797 29.8425C18.2335 29.7666 17.9834 29.7181 17.7318 29.6975H17.6474C17.4698 29.6861 17.2918 29.69 17.1145 29.7091C17.0476 29.7207 16.9859 29.7207 16.9149 29.7308L16.8933 29.4322V29.4104C16.9616 29.3985 17.0302 29.3917 17.099 29.3901C17.6556 29.3353 18.2147 29.4117 18.7534 29.6163C18.9221 29.6801 19.0929 29.7526 19.2678 29.8367L19.3347 29.87H19.3501L19.3728 29.8903L19.4345 29.9251H19.4499C19.4564 29.9264 19.463 29.9264 19.4695 29.9251V29.9469Z" fill="#002FA7"/>
<path d="M9.31801 33.9687L9.23468 33.6787C9.88593 33.2931 10.567 32.8233 11.2872 32.3217L11.3407 32.2898C12.1411 31.7345 12.9693 31.1633 13.8027 30.6674L13.886 30.9574C13.0629 31.4474 12.2399 32.0129 11.4395 32.5696L11.386 32.6117C10.6596 33.1148 9.97338 33.5845 9.31801 33.9687Z" fill="#002FA7"/>
<path d="M25.7926 32.5812C25.6898 32.603 25.5735 32.6349 25.4521 32.6552C25.2247 32.7088 24.9675 32.7625 24.6866 32.8262L24.6198 32.8378L24.272 32.9016C24.1506 32.9234 24.022 32.9553 23.8862 32.9756H23.8626C23.6568 33.0191 23.4387 33.051 23.2185 33.0945H23.1959L22.916 33.1365C21.2192 33.4206 19.5133 33.5846 17.8048 33.628L17.5384 33.6381L17.7205 33.3482C18.1258 32.7325 18.5524 32.1453 19.0003 31.5866L19.0302 31.5446H19.0682C19.8182 31.533 20.63 31.4793 21.4674 31.3837L21.5281 31.3735C21.8368 31.3416 22.128 31.2981 22.4078 31.2662C22.5817 31.2445 22.7566 31.2126 22.9222 31.1923L23.2247 31.1386C23.3687 31.1169 23.5045 31.0951 23.6362 31.0632L23.6825 31.0531C24.1373 30.9777 24.5766 30.882 24.9932 30.7965C25.2124 30.7544 25.4048 30.7109 25.5612 30.6689C25.7175 30.6268 25.9171 30.5833 26.1291 30.5239C26.5684 30.4065 27.0077 30.2789 27.447 30.1484C27.5982 30.1049 27.7505 30.0556 27.9089 30.0034L28.2505 29.886C28.3873 29.8439 28.5232 29.8004 28.662 29.7482C28.9192 29.6622 29.184 29.5656 29.4563 29.4583L29.6693 29.3843C30.4419 29.0857 31.1847 28.7754 31.873 28.4448L31.9193 28.4332L31.9492 28.4448C32.5151 28.7717 33.0689 29.1385 33.6087 29.5438L33.8504 29.7149L33.5973 29.8381C31.9591 30.5919 30.2951 31.2297 28.6116 31.749L28.1569 31.894C27.9902 31.9476 27.8318 31.9882 27.6805 32.039L27.5365 32.081L27.2937 32.1448C27.2104 32.1666 27.1198 32.1985 27.0365 32.2202L26.8925 32.2623C26.6116 32.3376 26.3544 32.4072 26.127 32.4652C26.0186 32.5198 25.9066 32.5587 25.7926 32.5812ZM23.1722 32.7943L23.2021 32.7943C23.415 32.7624 23.627 32.7204 23.8307 32.6769H23.8533C23.9819 32.6552 24.1115 32.6233 24.2319 32.603C24.3523 32.5827 24.4747 32.5595 24.5807 32.5377L24.6414 32.5276C24.9223 32.4638 25.1743 32.4101 25.3996 32.3681C25.512 32.3335 25.6257 32.3083 25.7402 32.2927C25.8431 32.271 25.9593 32.2391 26.0735 32.2072C26.2999 32.1535 26.5571 32.0796 26.8379 32.0042L26.982 31.9621C27.0653 31.9404 27.1486 31.9186 27.2392 31.8867L27.4748 31.823L27.6188 31.7795C27.77 31.7374 27.9275 31.6867 28.0962 31.6345L28.5427 31.4895C30.232 30.956 31.8154 30.363 33.2465 29.7062C32.8072 29.3858 32.3453 29.077 31.8915 28.8204C31.2094 29.1408 30.4738 29.4597 29.7094 29.7482L29.5345 29.812C29.2464 29.9193 28.9666 30.0266 28.6939 30.1107C28.5571 30.1542 28.4213 30.2049 28.2824 30.2557L27.9336 30.3731C27.7742 30.4268 27.625 30.4674 27.4717 30.5181C27.0314 30.6631 26.5848 30.7849 26.1455 30.9023C25.9336 30.956 25.7453 31.0096 25.5776 31.0473C25.4099 31.085 25.2288 31.1328 25.0015 31.1749C24.5766 31.272 24.1373 31.3561 23.6835 31.4315L23.6383 31.4431C23.5014 31.4634 23.3656 31.4851 23.2267 31.517L22.9181 31.5707C22.7514 31.5924 22.5776 31.6243 22.3955 31.6461C22.1074 31.6881 21.8121 31.72 21.5096 31.7519L21.4489 31.7635C20.6145 31.8476 19.8203 31.9085 19.0826 31.923C18.7256 32.3579 18.3707 32.861 18.0373 33.3525C19.5291 33.3105 21.1506 33.1394 22.8553 32.861L23.1732 32.7972L23.1722 32.7943Z" fill="#002FA7"/>
<path d="M16.7575 35.2185L16.6062 34.9821C16.8789 34.6414 17.1968 34.1615 17.5322 33.6599L17.7215 33.3699L17.8882 33.5946L17.6988 33.8759C17.3562 34.3848 17.0383 34.8647 16.7575 35.2185Z" fill="#002FA7"/>
<path d="M30.4797 27.4704L30.3796 27.7581L31.8689 28.7867L31.9689 28.499L30.4797 27.4704Z" fill="#002FA7"/>
<path d="M20.2411 30.2673L20.2339 30.2774C20.1588 30.3804 19.6516 31.0777 19.3007 31.5721L19.168 31.7592L19.0024 31.5982L19.0168 31.5765L19.0322 31.5562C19.0322 31.5562 19.7771 30.4282 19.9582 30.2847L20.2318 30.2673H20.2411Z" fill="#002FA7"/>
<path d="M20.3337 30.2644H20.2308L19.9571 30.2818H19.6752C19.5867 30.2818 19.4983 30.2818 19.4149 30.2687H19.1217C19.1091 30.2702 19.0963 30.2702 19.0837 30.2687H19.0271C18.5347 30.2322 18.0448 30.147 17.561 30.0136L17.3038 29.9338L17.2009 29.87C17.098 29.8323 17.0013 29.7932 16.9087 29.7511L16.8861 29.7439H16.8789C16.7389 29.6841 16.6015 29.6129 16.4673 29.5308C16.6134 29.496 16.7575 29.467 16.8974 29.4452L16.919 29.7439C16.9859 29.7337 17.0476 29.7337 17.1186 29.7236C17.2962 29.7033 17.4746 29.6989 17.6526 29.7105C17.9634 29.7966 18.2773 29.8595 18.5929 29.899C18.7256 29.9164 18.8594 29.9309 18.9993 29.9425C19.1392 29.9541 19.273 29.9628 19.4108 29.9686H19.418L19.4427 29.9614H19.4942V29.9744H19.5919C19.7154 29.9744 19.8378 29.9846 19.9551 29.9846H20.1454C20.1451 29.9812 20.1451 29.9778 20.1454 29.9744C20.1752 30.0484 20.2061 30.1194 20.237 30.1962L20.2709 30.2731L20.3337 30.2644Z" fill="#002FA7"/>
<path d="M30.5561 27.1675C30.5479 27.2415 30.5407 27.3125 30.5304 27.3937C30.5201 27.4749 30.5047 27.5865 30.4893 27.6837L30.479 27.7504V27.7649L30.4183 27.7939C30.122 27.9388 29.8318 28.0548 29.588 28.1592C29.3215 28.2694 29.0417 28.3781 28.7382 28.4883H28.7258C28.4947 28.5724 28.2505 28.6575 27.9933 28.7435C27.3421 28.9653 26.7392 29.1321 26.1846 29.2799C25.9511 29.3423 25.7093 29.4017 25.4254 29.4713L25.2721 29.5105L25.2062 29.5279L25.0149 29.5728C24.9058 29.596 24.7875 29.6207 24.6651 29.6439C24.0241 29.7888 23.4305 29.9063 22.8656 29.9962C22.3008 30.0861 21.7133 30.16 21.1711 30.2107L20.9716 30.2267C20.8327 30.2368 20.6917 30.2441 20.5508 30.2499H20.2699L20.237 30.1745C20.2051 30.0991 20.1742 30.0295 20.1444 29.9512C20.0929 29.8222 20.0415 29.6931 19.9983 29.5641C19.9808 29.5163 19.9643 29.4713 19.9479 29.4191C19.9314 29.3669 19.916 29.3249 19.9005 29.2741C19.8625 29.1582 19.8285 29.0422 19.7977 28.9262C19.7812 28.8667 19.7658 28.8087 19.7503 28.7493C19.7349 28.6899 19.7195 28.6232 19.7051 28.5623L19.6732 28.4289C19.632 28.2404 19.594 28.0534 19.56 27.849L19.5353 27.6938C19.5373 27.6844 19.5373 27.6743 19.5353 27.6648C19.5271 27.6112 19.5188 27.5575 19.5116 27.5024C19.5044 27.4474 19.4993 27.414 19.4931 27.3676L19.4468 26.9327C19.4468 26.9124 19.4468 26.8935 19.4468 26.8718C19.3043 25.0355 19.626 23.1873 20.3553 21.6524C20.4211 21.5074 20.4962 21.3624 20.5724 21.2174C20.8365 20.7388 21.1362 20.3014 21.4664 19.9126C22.0811 19.2175 22.7922 18.7113 23.5539 18.4265C23.6719 18.382 23.7912 18.3429 23.9119 18.3091L24.1877 18.2438C25.1495 18.0454 26.1313 18.2049 27.0359 18.7065C27.9404 19.208 28.7362 20.0341 29.3442 21.1029C29.3761 21.158 29.411 21.2145 29.4388 21.2696C29.4666 21.3247 29.4964 21.3769 29.5242 21.4306C29.552 21.4842 29.5911 21.5581 29.6209 21.619C29.7145 21.8148 29.8041 22.0148 29.8874 22.2222C30.1413 22.8723 30.3297 23.5691 30.4471 24.2925C30.4615 24.3592 30.4759 24.423 30.4862 24.4868C30.5023 24.5728 30.5154 24.6599 30.5253 24.7478V24.7637C30.5366 24.858 30.5458 24.9507 30.5551 25.045C30.5623 25.1146 30.5685 25.19 30.5726 25.2552C30.5767 25.3205 30.5819 25.4002 30.586 25.464C30.5901 25.5278 30.5921 25.6003 30.5952 25.6713C30.5983 25.7424 30.5952 25.796 30.5952 25.8583V25.8743C30.6099 26.3062 30.5968 26.739 30.5561 27.1675Z" fill="#002FA7"/>
</svg>
