<svg width="50" height="50" viewBox="0 0 50 50" fill="none" xmlns="http://www.w3.org/2000/svg">
<path d="M25 50C38.8071 50 50 38.8071 50 25C50 11.1929 38.8071 0 25 0C11.1929 0 0 11.1929 0 25C0 38.8071 11.1929 50 25 50Z" fill="#FFFEFE"/>
<g clip-path="url(#clip0_183_73)">
<path d="M35 19.1999C34.3 18.7999 33.4 18.7999 32.6 19.1999L27 22.4999L23.2 24.5999L17.7 27.8999C17 28.2999 16.1 28.2999 15.3 27.8999L11 25.2999C10.3 24.8999 9.8 24.0999 9.8 23.1999V18.1999C9.8 17.3999 10.2 16.5999 11 16.0999L15.3 13.5999C16 13.1999 16.9 13.1999 17.7 13.5999L22 16.1999C22.7 16.5999 23.2 17.3999 23.2 18.2999V21.5999L27 19.3999V15.9999C27 15.1999 26.6 14.3999 25.8 13.8999L17.8 9.1999C17.1 8.7999 16.2 8.7999 15.4 9.1999L7.2 13.9999C6.4 14.3999 6 15.1999 6 15.9999V25.3999C6 26.1999 6.4 26.9999 7.2 27.4999L15.3 32.1999C16 32.5999 16.9 32.5999 17.7 32.1999L23.2 28.9999L27 26.7999L32.5 23.5999C33.2 23.1999 34.1 23.1999 34.9 23.5999L39.2 26.0999C39.9 26.4999 40.4 27.2999 40.4 28.1999V33.1999C40.4 33.9999 40 34.7999 39.2 35.2999L35 37.7999C34.3 38.1999 33.4 38.1999 32.6 37.7999L28.3 35.2999C27.6 34.8999 27.1 34.0999 27.1 33.1999V29.9999L23.3 32.1999V35.4999C23.3 36.2999 23.7 37.0999 24.5 37.5999L32.6 42.2999C33.3 42.6999 34.2 42.6999 35 42.2999L43.1 37.5999C43.8 37.1999 44.3 36.3999 44.3 35.4999V25.9999C44.3 25.1999 43.9 24.3999 43.1 23.8999L35 19.1999Z" fill="#8247E5"/>
</g>
<defs>
<clipPath id="clip0_183_73">
<rect width="38.4" height="33.5" fill="white" transform="translate(6 9)"/>
</clipPath>
</defs>
</svg>
