<svg width="23" height="19" viewBox="0 0 23 19" fill="none" xmlns="http://www.w3.org/2000/svg">
<path d="M20.9911 0.736911L1.5035 7.99161C0.173441 8.50667 0.181329 9.22269 1.26107 9.54197L6.12132 11.0061L7.98097 16.5092C8.20705 17.1115 8.0956 17.3504 8.75089 17.3504C9.2566 17.3504 9.48095 17.1278 9.7626 16.8623C9.94171 16.6931 11.0052 15.6952 12.1926 14.5809L17.2482 18.1861C18.1785 18.6815 18.8502 18.4248 19.0818 17.3522L22.4004 2.25815C22.7402 0.943384 21.8811 0.347016 20.9911 0.736911ZM6.88408 10.6698L17.8391 3.99878C18.386 3.67866 18.8874 3.85077 18.4757 4.2035L9.09537 12.3723L8.73013 16.1323L6.88408 10.6698Z" fill="#4A72FF"/>
</svg>
