<svg width="15" height="15" viewBox="0 0 15 15" fill="none" xmlns="http://www.w3.org/2000/svg">
<path d="M10.3842 0.108487C7.89473 0.108487 5.87665 1.22137 5.87665 2.59618C5.87665 3.97099 7.89531 5.08445 10.3842 5.08445C12.8736 5.08445 14.8917 3.97099 14.8917 2.59618C14.8917 1.22137 12.873 0.10791 10.3842 0.10791V0.108487ZM14.8917 3.33522C14.8905 4.71003 12.8736 5.82349 10.3842 5.82349C7.90165 5.82349 5.88819 4.72214 5.87665 3.35368V4.32695C5.87665 4.91426 6.25281 5.45195 6.86896 5.87772C7.49204 6.04733 8.04704 6.28272 8.50915 6.58041C9.08204 6.7258 9.71204 6.81464 10.3842 6.81464C12.8736 6.81464 14.8917 5.70176 14.8917 4.32695V3.33522ZM14.8917 5.06599C14.8917 6.4408 12.8736 7.55426 10.3842 7.55426C10.0813 7.55426 9.78704 7.53176 9.50088 7.50003C9.72669 7.80413 9.88073 8.15541 9.95146 8.52753C10.0951 8.5356 10.237 8.54541 10.3842 8.54541C12.8736 8.54541 14.8917 7.43253 14.8917 6.05772V5.06599ZM4.61492 6.45406C2.1255 6.45406 0.107422 7.56753 0.107422 8.94233C0.107422 10.3171 2.12608 11.4306 4.61492 11.4306C7.10435 11.4306 9.12242 10.3171 9.12242 8.94233C9.12242 7.56753 7.10377 6.45406 4.61492 6.45406ZM14.8917 6.79676C14.8905 8.17157 12.8736 9.28503 10.3842 9.28503C10.2393 9.28503 10.0928 9.27464 9.95146 9.26657C9.94512 9.30983 9.94165 9.36753 9.93358 9.4108C9.96242 9.49791 9.98723 9.58387 9.98723 9.68195V10.2589C10.1182 10.2652 10.2497 10.2762 10.3842 10.2762C12.8736 10.2762 14.8917 9.1633 14.8917 7.78849V6.79676ZM14.8917 8.52753C14.8905 9.90233 12.8736 11.0158 10.3842 11.0158C10.2393 11.0158 10.0928 11.0054 9.95146 10.9973C9.94512 11.0406 9.94165 11.0983 9.93358 11.1416C9.96242 11.2281 9.98723 11.3146 9.98723 11.4127V11.9896C10.1182 11.996 10.2497 12.0069 10.3842 12.0069C12.8736 12.0069 14.8917 10.8941 14.8917 9.51926V8.52753ZM9.12242 9.68137C9.12127 11.0562 7.10435 12.1696 4.61492 12.1696C2.13242 12.1696 0.11896 11.0683 0.107422 9.69926V10.6731C0.107422 12.0479 2.12492 13.1614 4.61492 13.1614C7.10492 13.1614 9.12242 12.0479 9.12242 10.6731V9.68137ZM9.12242 11.4121C9.12127 12.787 7.10435 13.9004 4.61492 13.9004C2.13242 13.9004 0.11896 12.7991 0.107422 11.43V12.4039C0.107422 13.7787 2.12492 14.8921 4.61492 14.8921C7.10492 14.8921 9.12242 13.7787 9.12242 12.4039V11.4121Z" fill="#464646"/>
</svg>
