<svg width="9" height="17" viewBox="0 0 9 17" fill="none" xmlns="http://www.w3.org/2000/svg">
<path d="M5.94161 12.7338C5.94161 14.0929 5.93811 15.4519 5.94512 16.8143C5.94512 16.9627 5.91008 17.0032 5.75243 16.9998C4.5508 16.9931 3.34916 16.9931 2.14402 16.9998C1.97937 16.9998 1.94083 16.956 1.94083 16.8008C1.94434 14.0996 1.94434 11.395 1.94784 8.69381C1.94784 8.54543 1.91981 8.49147 1.75165 8.49485C1.21915 8.50496 0.690152 8.49485 0.157649 8.50159C0.0350331 8.50159 0 8.46787 0 8.34984C0.00350331 7.49664 0.00700662 6.64008 0 5.78688C0 5.65536 0.0490461 5.62838 0.171662 5.63176C0.704165 5.6385 1.23316 5.62838 1.76567 5.6385C1.91631 5.64187 1.94784 5.59466 1.94784 5.4564C1.94083 4.70437 1.94083 3.94897 1.94784 3.19695C1.95485 2.54609 2.09148 1.92896 2.49085 1.38265C2.91475 0.80261 3.50331 0.451889 4.19346 0.239434C4.70845 0.0809354 5.24095 0.0134892 5.77696 0.0101169C6.79292 -0.00337232 7.80888 0.00674462 8.82483 3.21608e-09C8.96847 3.21608e-09 9 0.04384 9 0.17536C8.9965 1.05216 8.99299 1.92896 9 2.80576C9 2.95077 8.95446 2.98112 8.81082 2.98112C8.16972 2.97438 7.52511 2.97775 6.884 2.97775C6.31997 2.97775 5.95212 3.33521 5.95212 3.87141C5.95212 4.40424 5.95562 4.94043 5.94862 5.47326C5.94862 5.60141 5.98715 5.63513 6.11678 5.63513C7.01713 5.63176 7.91397 5.63513 8.81433 5.62838C8.95095 5.62838 9 5.65873 8.98248 5.797C8.88089 6.6738 8.80031 7.5506 8.63916 8.42066C8.61814 8.52857 8.54807 8.50159 8.48501 8.50159C7.95251 8.50159 7.42351 8.50159 6.89101 8.50159C6.63527 8.50159 6.37602 8.50834 6.12028 8.49822C5.97665 8.49147 5.93461 8.53194 5.93811 8.67358C5.94161 10.0259 5.94161 11.3782 5.94161 12.7338Z" fill="white"/>
</svg>
