<svg width="15" height="13" viewBox="0 0 15 13" fill="none" xmlns="http://www.w3.org/2000/svg">
<path d="M7.04656 1.86828C6.45966 1.2798 5.68615 0.914065 4.85891 0.833888C4.03166 0.753712 3.20232 0.964101 2.51333 1.42892C1.82434 1.89374 1.31871 2.58397 1.0833 3.38105C0.847885 4.17813 0.89738 5.03232 1.22328 5.79687H3.605L4.60672 4.04375C4.71193 3.85954 4.86517 3.70735 5.05009 3.6034C5.23502 3.49945 5.44469 3.44765 5.65674 3.45352C5.86879 3.45939 6.07528 3.52272 6.25417 3.63673C6.43306 3.75075 6.57764 3.91119 6.6725 4.10094L7.685 6.12687L8.42656 5.10781C8.52091 4.97812 8.64087 4.86917 8.77902 4.78771C8.91718 4.70626 9.07058 4.65402 9.22974 4.63425C9.38889 4.61448 9.55041 4.62758 9.7043 4.67276C9.85819 4.71793 10.0012 4.79421 10.1244 4.89687L11.2048 5.79687H13.8069C14.1109 5.02569 14.1402 4.17333 13.8897 3.38313C13.6392 2.59293 13.1242 1.91309 12.4314 1.45795C11.7385 1.00281 10.9101 0.800124 10.0854 0.883987C9.26068 0.967851 8.49 1.33314 7.90297 1.91844L7.49984 2.32156L7.04703 1.86828H7.04656ZM7.15766 12.4456L3.12266 8.14062H4.28562C4.49218 8.14056 4.69506 8.08589 4.87369 7.98217C5.05232 7.87845 5.20036 7.72936 5.30281 7.55L5.55594 7.1075L6.45125 8.89906C6.54122 9.07913 6.67605 9.23299 6.84276 9.34581C7.00947 9.45863 7.20243 9.5266 7.40304 9.54318C7.60365 9.55976 7.80515 9.52439 7.98811 9.44047C8.17108 9.35655 8.32935 9.22692 8.44766 9.06406L9.58672 7.49844L10.0306 7.86875C10.2413 8.0444 10.5068 8.14061 10.7811 8.14062H11.938L7.83922 12.4484C7.79521 12.4946 7.74224 12.5314 7.68354 12.5564C7.62483 12.5814 7.56164 12.5942 7.49783 12.5939C7.43402 12.5937 7.37094 12.5804 7.31244 12.5549C7.25395 12.5294 7.20128 12.4922 7.15766 12.4456ZM6.04391 4.41547C6.00638 4.34031 5.94934 4.27662 5.87876 4.23106C5.80818 4.1855 5.72666 4.15974 5.64271 4.15648C5.55877 4.15323 5.4755 4.17259 5.4016 4.21254C5.3277 4.25249 5.2659 4.31157 5.22266 4.38359L3.95328 6.5H1.25C1.12568 6.5 1.00645 6.54938 0.918544 6.63729C0.830636 6.7252 0.78125 6.84443 0.78125 6.96875C0.78125 7.09307 0.830636 7.2123 0.918544 7.30021C1.00645 7.38811 1.12568 7.4375 1.25 7.4375H4.21859C4.29948 7.43748 4.37898 7.41654 4.44938 7.3767C4.51977 7.33686 4.57866 7.27949 4.62031 7.21015L5.58734 5.59812L7.08078 8.58453C7.11678 8.6565 7.1707 8.718 7.23735 8.76309C7.304 8.80818 7.38114 8.83536 7.46134 8.842C7.54154 8.84864 7.6221 8.83452 7.69526 8.801C7.76842 8.76749 7.83172 8.7157 7.87906 8.65062L9.45922 6.4775L10.4811 7.32875C10.5653 7.39897 10.6715 7.43745 10.7811 7.4375H13.5936C13.7179 7.4375 13.8371 7.38811 13.9251 7.30021C14.013 7.2123 14.0623 7.09307 14.0623 6.96875C14.0623 6.84443 14.013 6.7252 13.9251 6.63729C13.8371 6.54938 13.7179 6.5 13.5936 6.5H10.9508L9.67484 5.43687C9.62556 5.39579 9.56836 5.36527 9.50679 5.34719C9.44523 5.32911 9.38061 5.32386 9.31694 5.33177C9.25326 5.33968 9.19189 5.36058 9.13662 5.39317C9.08135 5.42577 9.03336 5.46936 8.99563 5.52125L7.57438 7.47594L6.04391 4.415V4.41547Z" fill="#464646"/>
</svg>
