<svg width="66" height="48" viewBox="0 0 66 48" fill="none" xmlns="http://www.w3.org/2000/svg">
<path d="M0 30.5725V0H7.84505V6.56556H29.3667V30.5725H0ZM7.84505 24.0282H21.5002V13.1148H7.84505V24.0282Z" fill="#F1F2F2"/>
<path d="M42.4642 0V4.3691H34.6191V0H42.4642ZM42.4642 6.56556V30.5725H34.6191V6.56556H42.4642Z" fill="#F1F2F2"/>
<path d="M55.5826 6.56556H65.5496V13.1086H55.5826V24.0219H65.9995V30.5725H47.7363V2.19521H55.5826V6.56556Z" fill="#F1F2F2"/>
<path d="M58.8675 34.607H50.2109V45.781H58.8675V34.607Z" fill="#F1F2F2"/>
<path d="M32.9922 41.6399H41.907V45.781H45.2361V30.5662H42.0355L32.9922 41.6399Z" fill="#F1F2F2"/>
<path d="M66.0006 30.5662H63.8535V45.781H66.0006V30.5662Z" fill="#F1F2F2"/>
<path d="M20.7636 45.781H23.6L32.913 34.607H24.0939V30.5662H20.7636V34.607H7.12109V35.8713H20.7636V45.781Z" fill="#F1F2F2"/>
<path d="M2.14712 41.6399H15.777V40.0875H2.14712V30.5662H0V45.781H2.14712V41.6399Z" fill="#F1F2F2"/>
<path d="M66 45.781H0V48H66V45.781Z" fill="#F1F2F2"/>
<path d="M66 28.9674H0V31.1864H66V28.9674Z" fill="#F1F2F2"/>
</svg>
