<svg width="15" height="15" viewBox="0 0 15 15" fill="none" xmlns="http://www.w3.org/2000/svg">
<path d="M9.22125 6.25C9.825 6.25 10.315 6.74 10.315 7.34375V9.375H10.3125V10H4.6875V8.125H4.68875V7.34375C4.68875 6.74 5.17812 6.25 5.7825 6.25H9.22125ZM13.75 7.34375C13.75 7.05367 13.6348 6.77547 13.4296 6.57035C13.2245 6.36523 12.9463 6.25 12.6562 6.25H10.5469C10.7925 6.54688 10.94 6.92812 10.94 7.34375V8.125H10.9375V10H13.2812C13.4056 10 13.5248 9.95061 13.6127 9.86271C13.7006 9.7748 13.75 9.65557 13.75 9.53125V7.34375ZM4.0625 9.375H4.06375V7.34375L4.06938 7.20625C4.0975 6.84375 4.23813 6.51375 4.45688 6.25H2.34375L2.25375 6.25375C1.98019 6.27634 1.72512 6.40096 1.53917 6.60288C1.35323 6.8048 1.25001 7.06926 1.25 7.34375V9.53125C1.25 9.79 1.46 10 1.71875 10H4.0625V9.375ZM7.5 1.875C7.99728 1.875 8.47419 2.07254 8.82583 2.42417C9.17746 2.77581 9.375 3.25272 9.375 3.75C9.375 4.24728 9.17746 4.72419 8.82583 5.07583C8.47419 5.42746 7.99728 5.625 7.5 5.625C7.00272 5.625 6.52581 5.42746 6.17417 5.07583C5.82254 4.72419 5.625 4.24728 5.625 3.75C5.625 3.25272 5.82254 2.77581 6.17417 2.42417C6.52581 2.07254 7.00272 1.875 7.5 1.875ZM11.5625 2.5C11.9769 2.5 12.3743 2.66462 12.6674 2.95765C12.9604 3.25067 13.125 3.6481 13.125 4.0625C13.125 4.4769 12.9604 4.87433 12.6674 5.16735C12.3743 5.46038 11.9769 5.625 11.5625 5.625C11.1481 5.625 10.7507 5.46038 10.4576 5.16735C10.1646 4.87433 10 4.4769 10 4.0625C10 3.6481 10.1646 3.25067 10.4576 2.95765C10.7507 2.66462 11.1481 2.5 11.5625 2.5ZM3.4375 2.5C3.8519 2.5 4.24933 2.66462 4.54235 2.95765C4.83538 3.25067 5 3.6481 5 4.0625C5 4.4769 4.83538 4.87433 4.54235 5.16735C4.24933 5.46038 3.8519 5.625 3.4375 5.625C3.0231 5.625 2.62567 5.46038 2.33265 5.16735C2.03962 4.87433 1.875 4.4769 1.875 4.0625C1.875 3.6481 2.03962 3.25067 2.33265 2.95765C2.62567 2.66462 3.0231 2.5 3.4375 2.5ZM1.25 11.0938C1.25 10.9694 1.29939 10.8502 1.38729 10.7623C1.4752 10.6744 1.59443 10.625 1.71875 10.625H13.2812C13.4056 10.625 13.5248 10.6744 13.6127 10.7623C13.7006 10.8502 13.75 10.9694 13.75 11.0938V11.4062C13.75 12.0279 13.5031 12.624 13.0635 13.0635C12.624 13.5031 12.0279 13.75 11.4062 13.75H3.59375C2.97215 13.75 2.37601 13.5031 1.93647 13.0635C1.49693 12.624 1.25 12.0279 1.25 11.4062V11.0938Z" fill="#464646"/>
</svg>
