<svg width="20" height="15" viewBox="0 0 20 15" fill="none" xmlns="http://www.w3.org/2000/svg">
<path d="M17.9788 0.0974188L0.900081 6.09906C-0.265567 6.52516 -0.258654 7.11751 0.687615 7.38164L4.94709 8.59291L6.57687 13.1454C6.775 13.6437 6.67733 13.8413 7.25162 13.8413C7.69482 13.8413 7.89143 13.6572 8.13828 13.4375C8.29525 13.2976 9.22724 12.472 10.2679 11.5502L14.6985 14.5327C15.5138 14.9425 16.1025 14.7302 16.3055 13.8428L19.2139 1.3559C19.5117 0.268229 18.7588 -0.225132 17.9788 0.0974188ZM5.61557 8.31462L15.2165 2.79588C15.6957 2.53106 16.1352 2.67344 15.7744 2.96525L7.55352 9.72311L7.23342 12.8336L5.61557 8.31462Z" fill="#4A72FF"/>
</svg>
