<svg width="17" height="14" viewBox="0 0 17 14" fill="none" xmlns="http://www.w3.org/2000/svg">
<path d="M17 1.65726C16.375 1.93878 15.7025 2.12865 14.9968 2.21361C15.7173 1.7765 16.2698 1.08404 16.5304 0.258074C15.8564 0.663331 15.1104 0.95752 14.3156 1.11625C13.6796 0.429471 12.7731 0 11.7699 0C9.84406 0 8.28246 1.58237 8.28246 3.53447C8.28246 3.81108 8.31319 4.0807 8.3729 4.33984C5.47416 4.19224 2.90394 2.78541 1.18372 0.646991C0.883479 1.1687 0.711598 1.77579 0.711598 2.42414C0.711598 3.65022 1.32726 4.73219 2.26309 5.36586C1.69165 5.34733 1.15363 5.18824 0.683262 4.92348C0.682912 4.93816 0.682912 4.9532 0.682912 4.96818C0.682912 6.68032 1.88521 8.10846 3.48087 8.43373C3.18823 8.51419 2.8801 8.55759 2.56193 8.55759C2.33694 8.55759 2.11843 8.53551 1.90554 8.49395C2.34967 9.89799 3.63756 10.9202 5.16352 10.9485C3.96987 11.8965 2.46635 12.4617 0.832008 12.4617C0.550757 12.4617 0.272954 12.4449 0 12.412C1.5439 13.4153 3.37699 14 5.34645 14C11.762 14 15.2698 8.61455 15.2698 3.94393C15.2698 3.79071 15.2667 3.63796 15.2601 3.48622C15.9413 2.9889 16.5327 2.36612 17 1.65726Z" fill="white"/>
</svg>
