<svg width="25" height="25" viewBox="0 0 25 25" fill="none" xmlns="http://www.w3.org/2000/svg">
<circle cx="12.5" cy="12.5" r="12" stroke="white"/>
<path d="M17.3455 7.4146L5.32393 11.7791C4.50344 12.0889 4.5083 12.5197 5.17438 12.7118L8.1726 13.5926L9.31979 16.9033C9.45925 17.2657 9.3905 17.4094 9.79475 17.4094C10.1067 17.4094 10.2451 17.2755 10.4189 17.1157C10.5293 17.0139 11.1854 16.4136 11.9179 15.7432L15.0366 17.9122C15.6105 18.2102 16.0249 18.0558 16.1678 17.4105L18.2149 8.32979C18.4245 7.53882 17.8946 7.18004 17.3455 7.4146ZM8.64314 13.3903L15.4011 9.37696C15.7385 9.18438 16.0478 9.28792 15.7939 9.50013L10.0072 14.4145L9.78193 16.6766L8.64314 13.3903Z" fill="white"/>
</svg>
