<svg width="45" height="44" viewBox="0 0 45 44" fill="none" xmlns="http://www.w3.org/2000/svg">
<circle cx="22.3847" cy="22.0001" r="20.9999" stroke="#4A72FF" stroke-width="2"/>
<path d="M31.3758 13.737L11.8883 20.9917C10.5582 21.5067 10.5661 22.2228 11.6458 22.542L16.5061 24.0062L18.3657 29.5092C18.5918 30.1115 18.4804 30.3504 19.1357 30.3504C19.6414 30.3504 19.8657 30.1279 20.1474 29.8623C20.3265 29.6931 21.3899 28.6952 22.5774 27.5809L27.6329 31.1862C28.5632 31.6815 29.2349 31.4249 29.4666 30.3522L32.7852 15.2582C33.125 13.9434 32.2659 13.3471 31.3758 13.737ZM17.2688 23.6698L28.2239 16.9988C28.7708 16.6787 29.2722 16.8508 28.8605 17.2036L19.4801 25.3724L19.1149 29.1323L17.2688 23.6698Z" fill="#4A72FF"/>
</svg>
