<svg width="20" height="16" viewBox="0 0 20 16" fill="none" xmlns="http://www.w3.org/2000/svg">
<path d="M18.2835 0.380442L1.45331 6.49071C0.304618 6.92452 0.311431 7.52759 1.24393 7.7965L5.44145 9.0297L7.04751 13.6646C7.24276 14.1719 7.14651 14.3731 7.71245 14.3731C8.1492 14.3731 8.34295 14.1857 8.5862 13.962C8.74089 13.8195 9.65933 12.979 10.6848 12.0405L15.051 15.077C15.8545 15.4942 16.4346 15.2781 16.6347 14.3746L19.5007 1.6617C19.7942 0.554344 19.0522 0.0520529 18.2835 0.380442ZM6.1002 8.74637L15.5614 3.12775C16.0337 2.85813 16.4668 3.00309 16.1112 3.30018L8.00995 10.1804L7.69451 13.3472L6.1002 8.74637Z" fill="white"/>
</svg>
